<svg xmlns="http://www.w3.org/2000/svg" viewBox="0 0 479.82 484.97"><defs><style>.cls-1{fill:#24171f;}.cls-2,.cls-4{fill:none;}.cls-2,.cls-3,.cls-4{stroke:#231f20;stroke-miterlimit:10;}.cls-2{stroke-width:4px;}.cls-3{fill:#231f20;}.cls-4{stroke-width:10px;}</style></defs><title>crosshair</title><g id="drawing"><path class="cls-1" d="M610.61,338.89h0v-9.2h0l-42.79-4-1-.08H510V318.4c1.89-5.06,3.07-12.4,3.07-20.55,0-15.29-4.15-27.67-9.26-27.67s-9.26,12.38-9.26,27.67c0,8.11,1.17,15.41,3,20.48v7.25H441.32l-1.13.08-42.8,4h0v9.2h0l42.84,4.15v0l1.1.1v0l0,0h56.25v31.4H473.75c-2.89,0-5.24,2.73-5.24,6.07s2.35,6.06,5.24,6.06H499a2.38,2.38,0,0,0,0,.36v1a5,5,0,0,0,1.34,3.4h-15.6a.74.74,0,0,0-.73.74.73.73,0,0,0,.73.72h16.17v2.78a3,3,0,0,0,2.28,2.94v2.49a.71.71,0,1,0,1.42,0v-2.49a3,3,0,0,0,2.27-2.94v-2.78h16.33a.72.72,0,0,0,.72-.72.74.74,0,0,0-.72-.74H507.46a4.94,4.94,0,0,0,1.34-3.4v-1c0-.11,0-.23,0-.36h24.94c2.9,0,5.23-2.71,5.23-6.06s-2.33-6.07-5.23-6.07H510v-31.4h56.79l0,0,43.84-4.25Z" transform="translate(-264.98 -94)"/></g><g id="inner_crosshair" data-name="inner crosshair"><path class="cls-2" d="M456.33,432.64h-43a5,5,0,0,1-5-5V383.33" transform="translate(-264.98 -94)"/><path class="cls-2" d="M599.64,383.33v44.31a5,5,0,0,1-5,5H552" transform="translate(-264.98 -94)"/><path class="cls-2" d="M552,239.36h42.64a5,5,0,0,1,5,5v43" transform="translate(-264.98 -94)"/><path class="cls-2" d="M408.36,287.33v-43a5,5,0,0,1,5-5h43" transform="translate(-264.98 -94)"/></g><g id="outer_crosshair" data-name="outer crosshair"><path class="cls-3" d="M694.5,336.5c0,104.93-85.07,190-190,190s-190-85.07-190-190,85.07-190,190-190S694.5,231.57,694.5,336.5ZM504.5,159A177.5,177.5,0,1,0,682,336.5,177.5,177.5,0,0,0,504.5,159Z" transform="translate(-264.98 -94)"/></g><g id="pointers"><line class="cls-4" x1="119.95" y1="362.07" x2="88.61" y2="393.41"/><line class="cls-4" x1="390.63" y1="91.39" x2="359.3" y2="122.72"/><line class="cls-4" x1="88.56" y1="91.54" x2="119.79" y2="122.77"/><line class="cls-4" x1="359.47" y1="362.45" x2="390.7" y2="393.68"/><line class="cls-4" x1="394.82" y1="242" x2="479.82" y2="242"/><line class="cls-4" y1="242" x2="85" y2="242"/><line class="cls-4" x1="239.52" y1="399.97" x2="239.52" y2="484.97"/><line class="cls-4" x1="239.52" x2="239.52" y2="85"/></g></svg>