<svg xmlns="http://www.w3.org/2000/svg" viewBox="0 0 1411.65 484.97"><defs><style>.cls-1{fill:#24171f;}.cls-2,.cls-4{fill:none;}.cls-2,.cls-3,.cls-4{stroke:#231f20;stroke-miterlimit:10;}.cls-2{stroke-width:4px;}.cls-3{fill:#231f20;}.cls-4{stroke-width:10px;}</style></defs><title>crosshair-acronym-skinny-text</title><g id="crosshair"><path class="cls-1" d="M555.31,308.39h0v-9.2h0l-42.79-4-1-.08H454.69V287.9c1.89-5.06,3.07-12.4,3.07-20.55,0-15.29-4.15-27.67-9.26-27.67s-9.26,12.38-9.26,27.67c0,8.11,1.17,15.41,3,20.48v7.25H386l-1.12.08-42.81,4h0v9.2h0l42.84,4.15v0l1.09.1v0l0,0h56.25v31.4H418.45c-2.89,0-5.23,2.73-5.23,6.07s2.34,6.06,5.23,6.06h25.28c0,.13,0,.25,0,.36v1a4.94,4.94,0,0,0,1.34,3.4H429.44a.73.73,0,0,0-.72.74.72.72,0,0,0,.72.72h16.17v2.78a3,3,0,0,0,2.28,2.94v2.49a.72.72,0,1,0,1.43,0v-2.49a3,3,0,0,0,2.27-2.94v-2.78h16.33a.72.72,0,0,0,.71-.72.74.74,0,0,0-.71-.74H452.16a4.94,4.94,0,0,0,1.34-3.4v-1c0-.11,0-.23,0-.36h24.94c2.9,0,5.23-2.71,5.23-6.06s-2.33-6.07-5.23-6.07H454.69v-31.4h56.79l0,0,43.83-4.25Z" transform="translate(-209.68 -63.5)"/><path class="cls-2" d="M401,402.14h-43a5,5,0,0,1-5-5V352.83" transform="translate(-209.68 -63.5)"/><path class="cls-2" d="M544.34,352.83v44.31a5,5,0,0,1-5,5H496.7" transform="translate(-209.68 -63.5)"/><path class="cls-2" d="M496.7,208.86h42.64a5,5,0,0,1,5,5v43" transform="translate(-209.68 -63.5)"/><path class="cls-2" d="M353.06,256.83v-43a5,5,0,0,1,5-5h43" transform="translate(-209.68 -63.5)"/><path class="cls-3" d="M639.2,306c0,104.93-85.06,190-190,190s-190-85.07-190-190,85.07-190,190-190S639.2,201.07,639.2,306Zm-190-177.5A177.5,177.5,0,1,0,626.7,306,177.5,177.5,0,0,0,449.2,128.5Z" transform="translate(-209.68 -63.5)"/><line class="cls-4" x1="119.95" y1="362.07" x2="88.61" y2="393.41"/><line class="cls-4" x1="390.63" y1="91.39" x2="359.3" y2="122.72"/><line class="cls-4" x1="88.56" y1="91.54" x2="119.79" y2="122.77"/><line class="cls-4" x1="359.47" y1="362.45" x2="390.7" y2="393.68"/><line class="cls-4" x1="394.82" y1="242" x2="479.82" y2="242"/><line class="cls-4" y1="242" x2="85" y2="242"/><line class="cls-4" x1="239.52" y1="399.97" x2="239.52" y2="484.97"/><line class="cls-4" x1="239.52" x2="239.52" y2="85"/></g><g id="text"><path d="M761,305.77c0-93.48,42.18-131.48,106.78-131.48,65.36,0,96.14,35.72,89.68,83.22l-34.58,3.42c6.08-43.7-18.24-60.8-55.86-60.8-38.76,0-69.16,23.94-69.16,106,0,84,31.92,106.41,71.44,106.41,35.34,0,63.08-17.86,60.42-53.58l30.4,3.8c2.66,43.7-33.06,77.14-92,77.14C803.2,439.92,761,398.88,761,305.77Z" transform="translate(-209.68 -63.5)"/><path d="M1029.68,355.94c-8.74,33.06,12.16,56.62,58.9,56.62,42.94,0,55.48-19.76,55.48-40.28,0-25.46-20.52-37.62-55.1-49-35.72-12.16-86.26-23.94-86.26-77.9,0-42.94,33.06-71.06,88.92-71.06,62.7,0,90.44,35,84,83.22L1141,260.93c5.7-42.94-13.3-60.8-51.3-60.8S1038,218.75,1038,240.41c0,30,27,40.28,61.18,50.92,37.62,12.16,80.18,26.22,80.18,74.87,0,40.66-30,73.72-91.58,73.72-57,0-98.42-28.12-90.06-80.18Z" transform="translate(-209.68 -63.5)"/><path d="M1209,178.85h183.55V207h-75.24V435.36h-34.58V207H1209Z" transform="translate(-209.68 -63.5)"/><path d="M1435.51,178.85h34.58V275c0,9.5-.76,20.14-1.14,28.12h1.52c5.7-7.6,13.3-16.34,20.14-23.94l88.55-100.32h39.9l-95.77,105.64,98,150.87h-40.66L1499,310,1470.09,343v92.35h-34.58Z" transform="translate(-209.68 -63.5)"/></g></svg>