<svg xmlns="http://www.w3.org/2000/svg" viewBox="0 0 1477.64 484.97"><defs><style>.\36 0d72e2a-53fd-493a-a1fb-42b6a509fbed{fill:#24171f;}.\33 897acd2-8959-4322-b054-5919cf8d0dea,.cbfd18a7-ca9b-40ec-9c96-770eea5262f6{fill:none;}.\31 6c4b349-83bd-4617-93ce-d1790f10742d,.\33 897acd2-8959-4322-b054-5919cf8d0dea,.cbfd18a7-ca9b-40ec-9c96-770eea5262f6{stroke:#231f20;stroke-miterlimit:10;}.\33 897acd2-8959-4322-b054-5919cf8d0dea{stroke-width:4px;}.\31 6c4b349-83bd-4617-93ce-d1790f10742d{fill:#231f20;}.cbfd18a7-ca9b-40ec-9c96-770eea5262f6{stroke-width:10px;}</style></defs><title>icstk</title><g id="a71cadb8-a3f8-4612-a4d0-be01362e81f9" data-name="crosshair-black"><path class="60d72e2a-53fd-493a-a1fb-42b6a509fbed" d="M375,288.83h0v-9.2h0l-42.79-4-1-.07H274.42v-7.18c1.89-5.07,3.07-12.41,3.07-20.56,0-15.29-4.15-27.67-9.26-27.67S259,232.49,259,247.78c0,8.11,1.17,15.42,3,20.48v7.26H205.75l-1.12.07-42.81,4h0v9.2h0L204.64,293v0l1.09.1v0l0,0H262v31.4H238.18c-2.89,0-5.23,2.73-5.23,6.07s2.34,6.06,5.23,6.06h25.28c0,.13,0,.25,0,.36v1a5,5,0,0,0,1.33,3.41h-15.6a.73.73,0,0,0,0,1.46h16.17v2.77a3,3,0,0,0,2.28,2.94V351a.72.72,0,1,0,1.43,0v-2.49a3,3,0,0,0,2.27-2.94v-2.77h16.33a.73.73,0,0,0,0-1.46H271.89a5,5,0,0,0,1.34-3.41v-1c0-.11,0-.23,0-.36h24.94c2.9,0,5.23-2.7,5.23-6.06s-2.33-6.07-5.23-6.07H274.42V293.1h56.79l0,0,43.84-4.25Z" transform="translate(-29.41 -43.93)"/><path class="3897acd2-8959-4322-b054-5919cf8d0dea" d="M220.76,382.57h-43a5,5,0,0,1-5-5v-44.3" transform="translate(-29.41 -43.93)"/><path class="3897acd2-8959-4322-b054-5919cf8d0dea" d="M364.07,333.27v44.3a5,5,0,0,1-5,5H316.43" transform="translate(-29.41 -43.93)"/><path class="3897acd2-8959-4322-b054-5919cf8d0dea" d="M316.43,189.29h42.64a5,5,0,0,1,5,5v43" transform="translate(-29.41 -43.93)"/><path class="3897acd2-8959-4322-b054-5919cf8d0dea" d="M172.79,237.26v-43a5,5,0,0,1,5-5h43" transform="translate(-29.41 -43.93)"/><path class="16c4b349-83bd-4617-93ce-d1790f10742d" d="M458.93,286.43c0,104.94-85.06,190-190,190s-190-85.06-190-190,85.07-190,190-190S458.93,181.5,458.93,286.43Zm-190-177.5a177.5,177.5,0,1,0,177.5,177.5A177.5,177.5,0,0,0,268.93,108.93Z" transform="translate(-29.41 -43.93)"/><line class="cbfd18a7-ca9b-40ec-9c96-770eea5262f6" x1="119.95" y1="362.07" x2="88.61" y2="393.41"/><line class="cbfd18a7-ca9b-40ec-9c96-770eea5262f6" x1="390.63" y1="91.39" x2="359.3" y2="122.72"/><line class="cbfd18a7-ca9b-40ec-9c96-770eea5262f6" x1="88.56" y1="91.54" x2="119.79" y2="122.77"/><line class="cbfd18a7-ca9b-40ec-9c96-770eea5262f6" x1="359.47" y1="362.45" x2="390.7" y2="393.68"/><line class="cbfd18a7-ca9b-40ec-9c96-770eea5262f6" x1="394.82" y1="242" x2="479.82" y2="242"/><line class="cbfd18a7-ca9b-40ec-9c96-770eea5262f6" y1="242" x2="85" y2="242"/><line class="cbfd18a7-ca9b-40ec-9c96-770eea5262f6" x1="239.52" y1="399.97" x2="239.52" y2="484.97"/><line class="cbfd18a7-ca9b-40ec-9c96-770eea5262f6" x1="239.52" x2="239.52" y2="85"/></g><g id="e31d7e1d-4b13-407f-a656-48aade9ff1fb" data-name="text"><path d="M652.18,400.09H598.62V172.85h53.56Z" transform="translate(-29.41 -43.93)"/><path d="M813.9,250.33v-28.6h-65V352.25h65v-28.6h53.56v52.52a21.73,21.73,0,0,1-7.8,17.16q-7.8,6.76-19.24,6.76h-118q-11.45,0-19-6.76a22,22,0,0,1-7.54-17.16V197.29a22.83,22.83,0,0,1,7.54-17.42q7.53-7,19-7h118q11.43,0,19.24,7a22.5,22.5,0,0,1,7.8,17.42v53Z" transform="translate(-29.41 -43.93)"/><path d="M1040.62,400.09H907V351.73h106.6V309.09H934a28,28,0,0,1-19-7A22.16,22.16,0,0,1,907,284.65V195.73q0-9.89,8.06-16.9a28,28,0,0,1,19-7h133.12v48.36H961.06v40h79.56a27,27,0,0,1,18.72,7,22.5,22.5,0,0,1,7.8,17.42v91a22.5,22.5,0,0,1-7.8,17.42A27,27,0,0,1,1040.62,400.09Z" transform="translate(-29.41 -43.93)"/><path d="M1260.06,220.69h-52.52v179.4H1154V220.69h-52.52V172.85h158.6Z" transform="translate(-29.41 -43.93)"/><path d="M1436.33,400.09l-45.24-65-45.24,65h-45.24V172.85h53.56v109.2l72.8-109.2h77l-76.44,109.2h1.56l78,118Z" transform="translate(-29.41 -43.93)"/></g></svg>