<svg xmlns="http://www.w3.org/2000/svg" viewBox="0 0 1641.18 484.97"><defs><style>.cls-1{fill:#24171f;}.cls-2,.cls-4{fill:none;}.cls-2,.cls-3,.cls-4{stroke:#231f20;stroke-miterlimit:10;}.cls-2{stroke-width:4px;}.cls-3{fill:#231f20;}.cls-4{stroke-width:10px;}</style></defs><title>icstk-full-convert</title><g id="crosshair"><path class="cls-1" d="M555.31,308.39h0v-9.2h0l-42.79-4-1-.08H454.69V287.9c1.89-5.06,3.07-12.4,3.07-20.55,0-15.29-4.15-27.67-9.26-27.67s-9.26,12.38-9.26,27.67c0,8.11,1.17,15.41,3,20.48v7.25H386l-1.12.08-42.81,4h0v9.2h0l42.84,4.15v0l1.09.1v0l0,0h56.25v31.4H418.45c-2.89,0-5.23,2.73-5.23,6.07s2.34,6.06,5.23,6.06h25.28c0,.13,0,.25,0,.36v1a4.94,4.94,0,0,0,1.34,3.4H429.44a.73.73,0,0,0-.72.74.72.72,0,0,0,.72.72h16.17v2.78a3,3,0,0,0,2.28,2.94v2.49a.72.72,0,1,0,1.43,0v-2.49a3,3,0,0,0,2.27-2.94v-2.78h16.33a.72.72,0,0,0,.71-.72.74.74,0,0,0-.71-.74H452.16a4.94,4.94,0,0,0,1.34-3.4v-1c0-.11,0-.23,0-.36h24.94c2.9,0,5.23-2.71,5.23-6.06s-2.33-6.07-5.23-6.07H454.69v-31.4h56.79l0,0,43.83-4.25Z" transform="translate(-209.68 -63.5)"/><path class="cls-2" d="M401,402.14h-43a5,5,0,0,1-5-5V352.83" transform="translate(-209.68 -63.5)"/><path class="cls-2" d="M544.34,352.83v44.31a5,5,0,0,1-5,5H496.7" transform="translate(-209.68 -63.5)"/><path class="cls-2" d="M496.7,208.86h42.64a5,5,0,0,1,5,5v43" transform="translate(-209.68 -63.5)"/><path class="cls-2" d="M353.06,256.83v-43a5,5,0,0,1,5-5h43" transform="translate(-209.68 -63.5)"/><path class="cls-3" d="M639.2,306c0,104.93-85.06,190-190,190s-190-85.07-190-190,85.07-190,190-190S639.2,201.07,639.2,306Zm-190-177.5A177.5,177.5,0,1,0,626.7,306,177.5,177.5,0,0,0,449.2,128.5Z" transform="translate(-209.68 -63.5)"/><line class="cls-4" x1="119.95" y1="362.07" x2="88.61" y2="393.41"/><line class="cls-4" x1="390.63" y1="91.39" x2="359.3" y2="122.72"/><line class="cls-4" x1="88.56" y1="91.54" x2="119.79" y2="122.77"/><line class="cls-4" x1="359.47" y1="362.45" x2="390.7" y2="393.68"/><line class="cls-4" x1="394.82" y1="242" x2="479.82" y2="242"/><line class="cls-4" y1="242" x2="85" y2="242"/><line class="cls-4" x1="239.52" y1="399.97" x2="239.52" y2="484.97"/><line class="cls-4" x1="239.52" x2="239.52" y2="85"/></g><g id="text"><path d="M727.32,267.92l5.76-.45,1.53-1.26V216.62l-1.53-1.26-5.76-.54v-3.6h22.76v3.6l-5.75.54-1.54,1.26v49.59l1.54,1.26,5.75.45v3.69H727.32Z" transform="translate(-209.68 -63.5)"/><path d="M756,268.37l4.85-.45,1.54-1.44V233.9H756v-2.79l10.43-3.24h3.42v4.95c6-3.33,10.62-5.4,14.49-5.4,7.83,0,12.15,4.68,12.15,13.68v25.38l1.53,1.44,4.86.45v3.24H783.2v-3.24l4.32-.45,1.53-1.44V242.63c0-6.57-2.43-9.27-9.09-9.27-2.88,0-6.21,1-10.08,3v30.15l1.53,1.44,4.32.45v3.24H756Z" transform="translate(-209.68 -63.5)"/><path d="M806.69,233.72v-2.79l5.94-2.61L816.5,220h3.33v9.54h13.68v4.23H819.83v23.76c0,6.84,1.17,9.81,7.47,9.81a29.23,29.23,0,0,0,6.21-.72v3.33a39.4,39.4,0,0,1-11.79,2c-7.47,0-9.36-2.7-9.36-9.09V233.72Z" transform="translate(-209.68 -63.5)"/><path d="M874.82,267a30.57,30.57,0,0,1-16.92,5.4c-11.88,0-20.07-8.91-20.07-22.14,0-13.59,8.73-22.86,20.79-22.86,9.81,0,16.2,6.66,16.2,17.73,0,.9,0,1.8-.09,2.79H845.57v1c0,11.52,6,18.36,15.12,18.36,4.5,0,9-1.8,14.13-5.22Zm-8-24.3c0-7.29-3.33-11.25-9.36-11.25-5.76,0-10.89,5-11.43,12.69h20.79Z" transform="translate(-209.68 -63.5)"/><path d="M881.39,268.37l4.77-.45,1.62-1.44V233.9h-6.39v-2.79l10.44-3.24h3.42v8.46a106.88,106.88,0,0,1,9.63-8.73,9.5,9.5,0,0,1,2.25-.18,13.3,13.3,0,0,1,5.4,1.17v7.74h-2.88a5.63,5.63,0,0,0-4.59-2.16c-3,0-6.12,2.25-9.81,6.57v25.74l1.53,1.44,6.3.45v3.24H881.39Z" transform="translate(-209.68 -63.5)"/><path d="M915.77,268.37l4.86-.45,1.53-1.44V233.9h-6.39v-2.79l10.44-3.24h3.42v4.95c6-3.33,10.62-5.4,14.49-5.4,7.83,0,12.15,4.68,12.15,13.68v25.38l1.53,1.44,4.86.45v3.24H943v-3.24l4.32-.45,1.53-1.44V242.63c0-6.57-2.43-9.27-9.09-9.27-2.88,0-6.21,1-10.08,3v30.15l1.53,1.44,4.32.45v3.24H915.77Z" transform="translate(-209.68 -63.5)"/><path d="M979.49,272.24c-7.11,0-11.52-4.77-11.52-11.52,0-9.36,8.28-12.06,26.28-16.38v-2.88c0-7.11-1.8-10.08-8.28-10.08a17.63,17.63,0,0,0-6.84,1.44v7.56h-6.21c-2.07,0-2.79-.63-2.79-2.79,0-5.49,6.84-10.17,18.18-10.17,9.45,0,13.41,3.87,13.41,13v26.1l1.62,1.44,4.77.45v3.24H995.42l-1.17-5.22C988.58,270.26,983.81,272.24,979.49,272.24Zm14.76-24.75c-12.69,3.51-18.36,5.94-18.36,12.51,0,4.41,2.7,7.38,7.2,7.38,3,0,6.66-1.44,11.16-4.05Z" transform="translate(-209.68 -63.5)"/><path d="M1012.07,233.72v-2.79l5.94-2.61,3.87-8.37h3.33v9.54h13.68v4.23h-13.68v23.76c0,6.84,1.17,9.81,7.47,9.81a29.23,29.23,0,0,0,6.21-.72v3.33a39.4,39.4,0,0,1-11.79,2c-7.47,0-9.36-2.7-9.36-9.09V233.72Z" transform="translate(-209.68 -63.5)"/><path d="M1056.8,227.87v38.61l1.62,1.44,4.86.45v3.24H1043v-3.24l4.77-.45,1.53-1.44V233.9H1043v-2.79l10.35-3.24Zm2.16-14.76a5.22,5.22,0,1,1-5.22-5.22A5.22,5.22,0,0,1,1059,213.11Z" transform="translate(-209.68 -63.5)"/><path d="M1110.26,249.92c0,13.32-8.91,22.5-21,22.5s-20.88-9.18-20.88-22.5,8.73-22.5,20.88-22.5S1110.26,236.6,1110.26,249.92Zm-33.39,0c0,11.61,5.22,18.63,12.42,18.63s12.51-6.93,12.51-18.63-5.22-18.63-12.51-18.63S1076.87,238.22,1076.87,249.92Z" transform="translate(-209.68 -63.5)"/><path d="M1116.29,268.37l4.86-.45,1.53-1.44V233.9h-6.39v-2.79l10.44-3.24h3.42v4.95c6-3.33,10.62-5.4,14.49-5.4,7.83,0,12.15,4.68,12.15,13.68v25.38l1.53,1.44,4.86.45v3.24h-19.71v-3.24l4.32-.45,1.53-1.44V242.63c0-6.57-2.43-9.27-9.09-9.27-2.88,0-6.21,1-10.08,3v30.15l1.53,1.44,4.32.45v3.24h-19.71Z" transform="translate(-209.68 -63.5)"/><path d="M1180,272.24c-7.11,0-11.52-4.77-11.52-11.52,0-9.36,8.28-12.06,26.28-16.38v-2.88c0-7.11-1.8-10.08-8.28-10.08a17.63,17.63,0,0,0-6.84,1.44v7.56h-6.21c-2.07,0-2.79-.63-2.79-2.79,0-5.49,6.84-10.17,18.18-10.17,9.45,0,13.41,3.87,13.41,13v26.1l1.62,1.44,4.77.45v3.24h-12.69l-1.17-5.22C1189.1,270.26,1184.33,272.24,1180,272.24Zm14.76-24.75c-12.69,3.51-18.36,5.94-18.36,12.51,0,4.41,2.7,7.38,7.2,7.38,3,0,6.66-1.44,11.16-4.05Z" transform="translate(-209.68 -63.5)"/><path d="M1212.86,268.37l5.31-.45,1.53-1.44V211.4h-6.93v-2.79l11-3.24h3.42v61.11l1.62,1.44,5.13.45v3.24h-21.06Z" transform="translate(-209.68 -63.5)"/><path d="M1295.48,272.69a31,31,0,0,1-15.3-3.6c-9.63-5.49-15.57-15.93-15.57-27.72,0-18.72,12.51-31.23,31.23-31.23a59.73,59.73,0,0,1,17.82,3.06v13.86h-5l-1.35-8.19-1.17-1.62a23.6,23.6,0,0,0-10.08-2.34c-13.41,0-22.14,9.72-22.14,25.83,0,17.1,8.91,27.18,23.49,27.18a27.1,27.1,0,0,0,7.83-1.17l1.44-1.44,2-10h5v14.22A55.6,55.6,0,0,1,1295.48,272.69Z" transform="translate(-209.68 -63.5)"/><path d="M1357.94,267a30.57,30.57,0,0,1-16.92,5.4c-11.88,0-20.07-8.91-20.07-22.14,0-13.59,8.73-22.86,20.79-22.86,9.81,0,16.2,6.66,16.2,17.73,0,.9,0,1.8-.09,2.79h-29.16v1c0,11.52,6,18.36,15.12,18.36,4.5,0,9-1.8,14.13-5.22Zm-8-24.3c0-7.29-3.33-11.25-9.36-11.25-5.76,0-10.89,5-11.43,12.69h20.79Z" transform="translate(-209.68 -63.5)"/><path d="M1364.51,268.37l4.86-.45,1.53-1.44V233.9h-6.39v-2.79l10.44-3.24h3.42v4.95c6-3.33,10.62-5.4,14.49-5.4,7.83,0,12.14,4.68,12.14,13.68v25.38l1.54,1.44,4.85.45v3.24h-19.7v-3.24l4.31-.45,1.54-1.44V242.63c0-6.57-2.43-9.27-9.09-9.27-2.88,0-6.21,1-10.08,3v30.15l1.53,1.44,4.32.45v3.24h-19.71Z" transform="translate(-209.68 -63.5)"/><path d="M1415.18,233.72v-2.79l5.94-2.61L1425,220h3.33v9.54H1442v4.23h-13.68v23.76c0,6.84,1.17,9.81,7.47,9.81a29.23,29.23,0,0,0,6.21-.72v3.33a39.4,39.4,0,0,1-11.79,2c-7.47,0-9.36-2.7-9.36-9.09V233.72Z" transform="translate(-209.68 -63.5)"/><path d="M1483.3,267a30.53,30.53,0,0,1-16.91,5.4c-11.88,0-20.07-8.91-20.07-22.14,0-13.59,8.73-22.86,20.79-22.86,9.81,0,16.19,6.66,16.19,17.73,0,.9,0,1.8-.09,2.79h-29.15v1c0,11.52,6,18.36,15.11,18.36,4.5,0,9-1.8,14.13-5.22Zm-8-24.3c0-7.29-3.33-11.25-9.35-11.25-5.76,0-10.89,5-11.43,12.69h20.78Z" transform="translate(-209.68 -63.5)"/><path d="M1489.88,268.37l4.77-.45,1.62-1.44V233.9h-6.39v-2.79l10.44-3.24h3.42v8.46a106.79,106.79,0,0,1,9.62-8.73,9.5,9.5,0,0,1,2.25-.18,13.3,13.3,0,0,1,5.4,1.17v7.74h-2.88a5.63,5.63,0,0,0-4.59-2.16c-3,0-6.12,2.25-9.8,6.57v25.74l1.52,1.44,6.3.45v3.24h-21.68Z" transform="translate(-209.68 -63.5)"/><path d="M1549.19,268.37l4.77-.45,1.62-1.44V233.72h-5.76v-2.88l5.76-1.35v-1c0-14.94,7.64-23.85,18.26-23.85,4.14,0,7,2.25,7,5.13a4.58,4.58,0,0,1-3.69,4.5l-8.19-5.4c-3.87,1.8-5.85,6.48-5.85,14v6.57h12.51v4.23H1563v32.76l1.53,1.44,5.58.45v3.24h-21Z" transform="translate(-209.68 -63.5)"/><path d="M1620.64,249.92c0,13.32-8.91,22.5-21,22.5s-20.88-9.18-20.88-22.5,8.73-22.5,20.88-22.5S1620.64,236.6,1620.64,249.92Zm-33.39,0c0,11.61,5.22,18.63,12.42,18.63s12.51-6.93,12.51-18.63-5.22-18.63-12.51-18.63S1587.25,238.22,1587.25,249.92Z" transform="translate(-209.68 -63.5)"/><path d="M1626.67,268.37l4.77-.45,1.62-1.44V233.9h-6.39v-2.79l10.44-3.24h3.42v8.46a106.88,106.88,0,0,1,9.63-8.73,9.5,9.5,0,0,1,2.25-.18,13.3,13.3,0,0,1,5.4,1.17v7.74h-2.88a5.63,5.63,0,0,0-4.59-2.16c-3,0-6.12,2.25-9.81,6.57v25.74l1.53,1.44,6.3.45v3.24h-21.69Z" transform="translate(-209.68 -63.5)"/><path d="M726.42,330.72v-2.79l5.94-2.61,3.87-8.37h3.33v9.54h13.67v4.23H739.56v23.76c0,6.84,1.17,9.81,7.47,9.81a29.13,29.13,0,0,0,6.2-.72v3.33a39.34,39.34,0,0,1-11.78,2c-7.47,0-9.36-2.7-9.36-9.09V330.72Z" transform="translate(-209.68 -63.5)"/><path d="M770.33,302.37v27.45c6-3.33,10.71-5.4,14.58-5.4,7.83,0,12.06,4.68,12.06,13.68v25.38l1.62,1.44,4.77.45v3.24H783.74v-3.24l4.23-.45,1.53-1.44V339.63c0-6.57-2.43-9.27-9.09-9.27-2.88,0-6.2,1-10.08,3v30.15l1.63,1.44,4.22.45v3.24h-19.7v-3.24l4.85-.45,1.54-1.44V308.4h-6.93v-2.79l11-3.24Z" transform="translate(-209.68 -63.5)"/><path d="M845.3,364a30.57,30.57,0,0,1-16.92,5.4c-11.88,0-20.06-8.91-20.06-22.14,0-13.59,8.72-22.86,20.78-22.86,9.81,0,16.2,6.66,16.2,17.73,0,.9,0,1.8-.09,2.79H816.05v1c0,11.52,6,18.36,15.12,18.36,4.5,0,9-1.8,14.13-5.22Zm-8-24.3c0-7.29-3.33-11.25-9.36-11.25-5.76,0-10.89,5-11.43,12.69h20.79Z" transform="translate(-209.68 -63.5)"/><path d="M879.59,351h5.32L886,361.32l1.17,1.53a22.05,22.05,0,0,0,10.08,2.07c8.73,0,13.59-4.5,13.59-10.8,0-7.47-5.22-9.09-15-13.32-10-4.32-15.21-7.65-15.21-16.38,0-10.17,8-17.28,20.79-17.28a49.47,49.47,0,0,1,15.3,2.52v13.95H912l-1.35-8.55-1.35-1.53a16.33,16.33,0,0,0-8.1-1.89c-7.65,0-12.23,4.32-12.23,10.89,0,6,4.31,8.28,12.59,11.79,4.59,1.89,9.45,3.33,13.59,7.38a13.5,13.5,0,0,1,4,9.9c0,10.62-8.91,18.09-23.31,18.09a41.47,41.47,0,0,1-16.2-2.88Z" transform="translate(-209.68 -63.5)"/><path d="M926.49,330.72v-2.79l5.93-2.61,3.87-8.37h3.34v9.54H953.3v4.23H939.63v23.76c0,6.84,1.16,9.81,7.46,9.81a29.23,29.23,0,0,0,6.21-.72v3.33a39.4,39.4,0,0,1-11.79,2c-7.47,0-9.35-2.7-9.35-9.09V330.72Z" transform="translate(-209.68 -63.5)"/><path d="M970.49,324.42v29.79c0,6.48,2.7,9.54,8.73,9.54a23.69,23.69,0,0,0,10.44-2.7V330.54h-6.39v-2.79l10.44-3.33h3.42v39.06l1.62,1.44,4.23.45v3.24H989.66v-5c-5.4,3.87-10.17,5.94-14.58,5.94-7.74,0-12.06-4.77-12.06-13.77v-25.2h-6.39v-2.79l10.44-3.33Z" transform="translate(-209.68 -63.5)"/><path d="M1033,308.4v-2.79l11-3.24h3.42v61.11l1.53,1.44,4.32.45v3.24H1040v-4.68c-4.59,3.69-8.91,5.49-13.86,5.49-9.81,0-17.37-8.46-17.37-21.06,0-14.4,9.54-24,23.22-24a36.74,36.74,0,0,1,8,1V308.4Zm6.93,21.33a29.67,29.67,0,0,0-7.92-1.44c-9.09,0-15.39,7.29-15.39,18.54,0,10.53,5.4,16.92,13.5,16.92a18.53,18.53,0,0,0,9.81-3.15Z" transform="translate(-209.68 -63.5)"/><path d="M1075.79,325.32v3.33L1071,329l-1.08,1.44,10.8,28,11.25-28-.72-1.44-4.86-.36v-3.33h16v3.33l-5.22.72-18,43.74c-4.23,10.17-8.55,15.12-14.4,15.12-3.78,0-6.21-2.07-6.21-5a6.59,6.59,0,0,1,2.34-4.86l8.64,3.42c2.43-2.61,5-7.11,7.29-13.5l-15.12-39.06-5.49-.54v-3.33Z" transform="translate(-209.68 -63.5)"/><path d="M1151,325.14a14.08,14.08,0,0,1,11.16,4.72q4.14,4.72,4.14,12.92a28.77,28.77,0,0,1-1.89,10.35,30,30,0,0,1-5.4,9,20.23,20.23,0,0,1-15.84,7.29q-7,0-11.16-4.59t-4.14-12.51a30.88,30.88,0,0,1,1.89-10.67,28,28,0,0,1,5.31-9Q1141.76,325.14,1151,325.14Zm-1.17,3.51a9.68,9.68,0,0,0-5.49,1.75,16.13,16.13,0,0,0-4.59,4.91,26.42,26.42,0,0,0-3.1,7.51,38.4,38.4,0,0,0-1.13,9.59q0,6.48,2.34,9.9a7.35,7.35,0,0,0,6.39,3.42,9.69,9.69,0,0,0,5.49-1.76,16.28,16.28,0,0,0,4.59-4.86,26.71,26.71,0,0,0,3.15-7.42,36.08,36.08,0,0,0,1.17-9.45q0-6.75-2.34-10.17A7.43,7.43,0,0,0,1149.86,328.65Z" transform="translate(-209.68 -63.5)"/><path d="M1195.58,306.69q-5.13,3.33-8.1,21h12.69v4h-13.41l-3.6,25.56a87.73,87.73,0,0,1-2.34,11.29,33.37,33.37,0,0,1-11.61,17,12.06,12.06,0,0,1-6.84,2.52,4.84,4.84,0,0,1-3.51-1.31,4.59,4.59,0,0,1-1.35-3.46,4.31,4.31,0,0,1,2-3.6l9.36,2.43a20.86,20.86,0,0,0,4.68-9.45,148.85,148.85,0,0,0,2.79-15.12l3.78-25.83-6,.63.09-3,6.84-2.79q2.25-11.7,7.43-17.78t11.47-6.07a8.57,8.57,0,0,1,5.36,1.62,4.62,4.62,0,0,1,2.11,3.69,4.17,4.17,0,0,1-1.17,3,6.2,6.2,0,0,1-3.24,1.67Z" transform="translate(-209.68 -63.5)"/><path d="M1274.69,308.22v13.86h-5l-1.26-8.37-1.26-1.35h-13.86v50.85l1.62,1.26,6,.45v3.69h-23.49v-3.69l6-.45,1.62-1.26V312.36h-13.86l-1.26,1.35-1.26,8.37h-5V308.22Z" transform="translate(-209.68 -63.5)"/><path d="M1291.43,369.24c-7.11,0-11.52-4.77-11.52-11.52,0-9.36,8.28-12.06,26.28-16.38v-2.88c0-7.11-1.8-10.08-8.28-10.08a17.63,17.63,0,0,0-6.84,1.44v7.56h-6.21c-2.07,0-2.79-.63-2.79-2.79,0-5.49,6.84-10.17,18.18-10.17,9.45,0,13.41,3.87,13.41,13v26.1l1.62,1.44,4.77.45v3.24h-12.69l-1.17-5.22C1300.52,367.26,1295.75,369.24,1291.43,369.24Zm14.76-24.75c-12.69,3.51-18.36,5.94-18.36,12.51,0,4.41,2.7,7.38,7.2,7.38,3,0,6.66-1.44,11.16-4.05Z" transform="translate(-209.68 -63.5)"/><path d="M1324.46,365.37l4.77-.45,1.62-1.44V330.9h-6.39v-2.79l10.44-3.24h3.42v8.46a106.88,106.88,0,0,1,9.63-8.73,9.5,9.5,0,0,1,2.25-.18,13.3,13.3,0,0,1,5.4,1.17v7.74h-2.88a5.63,5.63,0,0,0-4.59-2.16c-3,0-6.12,2.25-9.81,6.57v25.74l1.53,1.44,6.3.45v3.24h-21.69Z" transform="translate(-209.68 -63.5)"/><path d="M1402.22,326.94v4.23h-9.9a14.54,14.54,0,0,1,2.52,8.37c0,8-6.75,14-17.19,14h-1.53a9,9,0,0,0-1,4.05c0,.45.09,1.17.18,2.16l8.64,1.35c10.62,1.62,15.3,4.41,15.3,11.07,0,3.33-1.89,7.2-5.4,10.08a28,28,0,0,1-17.82,5.94c-10.35,0-16.29-4.41-16.29-11.61,0-5.76,3.6-10.08,9.72-11.16a10.24,10.24,0,0,1-.9-4c0-2.34,1.44-5.13,4.32-8.55-6.93-1.53-11.16-6.84-11.16-13.59,0-8.73,6.84-14.85,17.46-14.85a22.34,22.34,0,0,1,10.17,2.52Zm-35.28,47.79c0,5.22,4.86,9.36,12.24,9.36,8,0,13.41-4.5,13.41-9.54,0-4.86-2.88-5.85-9.18-7l-8.73-1.62C1369.73,367.44,1366.94,370.77,1366.94,374.73Zm2.52-35.73c0,6.75,3.6,11.07,8.82,11.07s8.82-4.32,8.82-11.07-3.6-11.07-8.82-11.07S1369.46,332.07,1369.46,339Z" transform="translate(-209.68 -63.5)"/><path d="M1443.53,364a30.57,30.57,0,0,1-16.92,5.4c-11.88,0-20.07-8.91-20.07-22.14,0-13.59,8.73-22.86,20.79-22.86,9.81,0,16.2,6.66,16.2,17.73,0,.9,0,1.8-.09,2.79h-29.16v1c0,11.52,6,18.36,15.12,18.36,4.5,0,9-1.8,14.13-5.22Zm-8-24.3c0-7.29-3.33-11.25-9.36-11.25-5.76,0-10.89,5-11.43,12.69h20.79Z" transform="translate(-209.68 -63.5)"/><path d="M1449.65,330.72v-2.79l5.94-2.61,3.87-8.37h3.33v9.54h13.68v4.23h-13.68v23.76c0,6.84,1.17,9.81,7.47,9.81a29.23,29.23,0,0,0,6.21-.72v3.33a39.4,39.4,0,0,1-11.79,2c-7.47,0-9.36-2.7-9.36-9.09V330.72Z" transform="translate(-209.68 -63.5)"/><path d="M1517.78,364a30.57,30.57,0,0,1-16.92,5.4c-11.88,0-20.07-8.91-20.07-22.14,0-13.59,8.73-22.86,20.79-22.86,9.81,0,16.2,6.66,16.2,17.73,0,.9,0,1.8-.09,2.79h-29.16v1c0,11.52,6,18.36,15.12,18.36,4.5,0,9-1.8,14.13-5.22Zm-8-24.3c0-7.29-3.33-11.25-9.36-11.25-5.76,0-10.89,5-11.43,12.69h20.79Z" transform="translate(-209.68 -63.5)"/><path d="M1549.19,308.4v-2.79l11-3.24h3.42v61.11l1.53,1.44,4.32.45v3.24h-13.32v-4.68c-4.59,3.69-8.91,5.49-13.86,5.49-9.81,0-17.37-8.46-17.37-21.06,0-14.4,9.54-24,23.22-24a36.74,36.74,0,0,1,8,1V308.4Zm6.93,21.33a29.67,29.67,0,0,0-7.92-1.44c-9.09,0-15.39,7.29-15.39,18.54,0,10.53,5.4,16.92,13.5,16.92a18.53,18.53,0,0,0,9.81-3.15Z" transform="translate(-209.68 -63.5)"/><path d="M1600.49,364.92l5.13-.45,1.53-1.26V313.62l-1.53-1.26-5.13-.54v-3.6h21.86v3.6l-5.58.54-1.52,1.26V338h3.42l20-24.39-.54-1.26-5-.54v-3.6h18.72v3.6l-5.94.81-18.9,22.5,20.43,29.34,6.57.45v3.69h-14.85v-2.7L1621.9,341.7h-6.65v21.51l1.52,1.26,5.58.45v3.69h-21.86Z" transform="translate(-209.68 -63.5)"/><path d="M1669.42,324.87v38.61l1.62,1.44,4.86.45v3.24h-20.25v-3.24l4.77-.45,1.53-1.44V330.9h-6.3v-2.79l10.35-3.24Zm2.16-14.76a5.22,5.22,0,1,1-5.22-5.22A5.22,5.22,0,0,1,1671.58,310.11Z" transform="translate(-209.68 -63.5)"/><path d="M1680.22,365.37l5.32-.45,1.52-1.44V308.4h-6.93v-2.79l11-3.24h3.42v61.11l1.62,1.44,5.13.45v3.24h-21.06Z" transform="translate(-209.68 -63.5)"/><path d="M1705.6,365.37l5.32-.45,1.52-1.44V308.4h-6.93v-2.79l11-3.24h3.42v61.11l1.62,1.44,5.13.45v3.24H1705.6Z" transform="translate(-209.68 -63.5)"/><path d="M1745.38,324.87v38.61l1.62,1.44,4.86.45v3.24h-20.25v-3.24l4.77-.45,1.53-1.44V330.9h-6.3v-2.79l10.35-3.24Zm2.16-14.76a5.22,5.22,0,1,1-5.22-5.22A5.22,5.22,0,0,1,1747.54,310.11Z" transform="translate(-209.68 -63.5)"/><path d="M1756.36,365.37l4.86-.45,1.53-1.44V330.9h-6.39v-2.79l10.44-3.24h3.42v4.95c6-3.33,10.62-5.4,14.49-5.4,7.83,0,12.15,4.68,12.15,13.68v25.38l1.53,1.44,4.86.45v3.24h-19.71v-3.24l4.32-.45,1.53-1.44V339.63c0-6.57-2.43-9.27-9.09-9.27-2.88,0-6.21,1-10.08,3v30.15l1.53,1.44,4.32.45v3.24h-19.71Z" transform="translate(-209.68 -63.5)"/><path d="M1850.86,326.94v4.23H1841a14.54,14.54,0,0,1,2.52,8.37c0,8-6.75,14-17.19,14h-1.53a9,9,0,0,0-1,4.05c0,.45.09,1.17.18,2.16l8.64,1.35c10.62,1.62,15.3,4.41,15.3,11.07,0,3.33-1.89,7.2-5.4,10.08a28,28,0,0,1-17.82,5.94c-10.35,0-16.29-4.41-16.29-11.61,0-5.76,3.6-10.08,9.72-11.16a10.24,10.24,0,0,1-.9-4c0-2.34,1.44-5.13,4.32-8.55-6.93-1.53-11.16-6.84-11.16-13.59,0-8.73,6.84-14.85,17.46-14.85a22.34,22.34,0,0,1,10.17,2.52Zm-35.28,47.79c0,5.22,4.86,9.36,12.24,9.36,8,0,13.41-4.5,13.41-9.54,0-4.86-2.88-5.85-9.18-7l-8.73-1.62C1818.37,367.44,1815.58,370.77,1815.58,374.73ZM1818.1,339c0,6.75,3.6,11.07,8.82,11.07s8.82-4.32,8.82-11.07-3.6-11.07-8.82-11.07S1818.1,332.07,1818.1,339Z" transform="translate(-209.68 -63.5)"/></g></svg>