<svg xmlns="http://www.w3.org/2000/svg" viewBox="0 0 2826.54 484.97"><defs><style>.\30 04f0d0a-24a5-4379-b74c-3b51b8342a6c,.\31 37c018a-cc11-4b80-bf9b-8770c1c3fd78{fill:#fff;}.\39 e9aa48d-63d9-4ffa-bca3-af810c2ee8bb,.f35557e4-19c1-4f4c-b12a-49f0e3901b0d{fill:none;}.\31 37c018a-cc11-4b80-bf9b-8770c1c3fd78,.\39 e9aa48d-63d9-4ffa-bca3-af810c2ee8bb,.f35557e4-19c1-4f4c-b12a-49f0e3901b0d{stroke:#fff;stroke-miterlimit:10;}.f35557e4-19c1-4f4c-b12a-49f0e3901b0d{stroke-width:4px;}.\39 e9aa48d-63d9-4ffa-bca3-af810c2ee8bb{stroke-width:10px;}</style></defs><title>iscuw-full-white</title><g id="b4c759ef-ff8e-4003-a654-3adac124ea46" data-name="crosshair"><path class="004f0d0a-24a5-4379-b74c-3b51b8342a6c" d="M555.31,308.39h0v-9.2h0l-42.79-4-1-.08H454.69V287.9c1.89-5.06,3.07-12.4,3.07-20.55,0-15.29-4.15-27.67-9.26-27.67s-9.26,12.38-9.26,27.67c0,8.11,1.17,15.41,3,20.48v7.25H386l-1.12.08-42.81,4h0v9.2h0l42.84,4.15v0l1.09.1v0l0,0h56.25v31.4H418.45c-2.89,0-5.23,2.73-5.23,6.07s2.34,6.06,5.23,6.06h25.28c0,.13,0,.25,0,.36v1a4.94,4.94,0,0,0,1.34,3.4H429.44a.73.73,0,0,0-.72.74.72.72,0,0,0,.72.72h16.17v2.78a3,3,0,0,0,2.28,2.94v2.49a.72.72,0,1,0,1.43,0v-2.49a3,3,0,0,0,2.27-2.94v-2.78h16.33a.72.72,0,0,0,.71-.72.74.74,0,0,0-.71-.74H452.16a4.94,4.94,0,0,0,1.34-3.4v-1c0-.11,0-.23,0-.36h24.94c2.9,0,5.23-2.71,5.23-6.06s-2.33-6.07-5.23-6.07H454.69v-31.4h56.79l0,0,43.83-4.25Z" transform="translate(-209.68 -63.5)"/><path class="f35557e4-19c1-4f4c-b12a-49f0e3901b0d" d="M401,402.14h-43a5,5,0,0,1-5-5V352.83" transform="translate(-209.68 -63.5)"/><path class="f35557e4-19c1-4f4c-b12a-49f0e3901b0d" d="M544.34,352.83v44.31a5,5,0,0,1-5,5H496.7" transform="translate(-209.68 -63.5)"/><path class="f35557e4-19c1-4f4c-b12a-49f0e3901b0d" d="M496.7,208.86h42.64a5,5,0,0,1,5,5v43" transform="translate(-209.68 -63.5)"/><path class="f35557e4-19c1-4f4c-b12a-49f0e3901b0d" d="M353.06,256.83v-43a5,5,0,0,1,5-5h43" transform="translate(-209.68 -63.5)"/><path class="137c018a-cc11-4b80-bf9b-8770c1c3fd78" d="M639.2,306c0,104.93-85.06,190-190,190s-190-85.07-190-190,85.07-190,190-190S639.2,201.07,639.2,306Zm-190-177.5A177.5,177.5,0,1,0,626.7,306,177.5,177.5,0,0,0,449.2,128.5Z" transform="translate(-209.68 -63.5)"/><line class="9e9aa48d-63d9-4ffa-bca3-af810c2ee8bb" x1="119.95" y1="362.07" x2="88.61" y2="393.41"/><line class="9e9aa48d-63d9-4ffa-bca3-af810c2ee8bb" x1="390.63" y1="91.39" x2="359.3" y2="122.72"/><line class="9e9aa48d-63d9-4ffa-bca3-af810c2ee8bb" x1="88.56" y1="91.54" x2="119.79" y2="122.77"/><line class="9e9aa48d-63d9-4ffa-bca3-af810c2ee8bb" x1="359.47" y1="362.45" x2="390.7" y2="393.68"/><line class="9e9aa48d-63d9-4ffa-bca3-af810c2ee8bb" x1="394.82" y1="242" x2="479.82" y2="242"/><line class="9e9aa48d-63d9-4ffa-bca3-af810c2ee8bb" y1="242" x2="85" y2="242"/><line class="9e9aa48d-63d9-4ffa-bca3-af810c2ee8bb" x1="239.52" y1="399.97" x2="239.52" y2="484.97"/><line class="9e9aa48d-63d9-4ffa-bca3-af810c2ee8bb" x1="239.52" x2="239.52" y2="85"/></g><g id="c1d3afc6-dd95-4b70-ae88-a515dbd5ff08" data-name="text"><path class="004f0d0a-24a5-4379-b74c-3b51b8342a6c" d="M730.05,268.07l8.32-.65,2.21-1.82V194l-2.21-1.82-8.32-.78v-5.2h32.89v5.2l-8.32.78L752.41,194V265.6l2.21,1.82,8.32.65v5.33H730.05Z" transform="translate(-209.68 -63.5)"/><path class="004f0d0a-24a5-4379-b74c-3b51b8342a6c" d="M771.52,268.72l7-.65,2.21-2.08V218.93h-9.23v-4l15.08-4.68h4.94v7.15c8.71-4.81,15.34-7.8,20.93-7.8,11.31,0,17.55,6.76,17.55,19.76V266l2.21,2.08,7,.65v4.68H810.78v-4.68l6.24-.65,2.21-2.08V231.54c0-9.49-3.51-13.39-13.13-13.39-4.16,0-9,1.43-14.56,4.29V266l2.21,2.08,6.24.65v4.68H771.52Z" transform="translate(-209.68 -63.5)"/><path class="004f0d0a-24a5-4379-b74c-3b51b8342a6c" d="M886.18,227.12h-6.37l-1-9.23a20.1,20.1,0,0,0-9.62-2.73c-6.89,0-10.79,3.51-10.79,9.36,0,5.59,3.77,8.32,11,11.83,4.55,2.21,9.49,4,13.78,7.54,3.12,2.47,4.94,6.37,4.94,11.18,0,12.09-9,19.5-24.31,19.5a48.92,48.92,0,0,1-16.9-2.73v-16.9h6.24L854.72,266a21.94,21.94,0,0,0,11,3.12c7.54,0,12.22-4.42,12.22-10.53,0-6.76-4.68-9.1-13.26-13-11.05-4.94-16.77-9.1-16.77-17.81,0-11.44,8.19-18.2,23-18.2a37.35,37.35,0,0,1,15.21,2.86Z" transform="translate(-209.68 -63.5)"/><path class="004f0d0a-24a5-4379-b74c-3b51b8342a6c" d="M896.71,218.67v-4l8.58-3.77,5.59-12.1h4.81v13.79h19.76v6.11H915.69V253c0,9.88,1.69,14.17,10.79,14.17a42.22,42.22,0,0,0,9-1v4.81a56.91,56.91,0,0,1-17,2.86c-10.79,0-13.52-3.9-13.52-13.13v-42Z" transform="translate(-209.68 -63.5)"/><path class="004f0d0a-24a5-4379-b74c-3b51b8342a6c" d="M961.32,210.22V266l2.34,2.08,7,.65v4.68H941.43v-4.68l6.89-.65,2.21-2.08V218.93h-9.1v-4l15-4.68Zm3.12-21.33a7.54,7.54,0,1,1-7.54-7.54A7.55,7.55,0,0,1,964.44,188.89Z" transform="translate(-209.68 -63.5)"/><path class="004f0d0a-24a5-4379-b74c-3b51b8342a6c" d="M976.53,218.67v-4l8.58-3.77,5.59-12.1h4.81v13.79h19.76v6.11H995.51V253c0,9.88,1.69,14.17,10.79,14.17a42.22,42.22,0,0,0,9-1v4.81a56.91,56.91,0,0,1-17,2.86c-10.79,0-13.52-3.9-13.52-13.13v-42Z" transform="translate(-209.68 -63.5)"/><path class="004f0d0a-24a5-4379-b74c-3b51b8342a6c" d="M1040.1,209.57v43c0,9.36,3.9,13.78,12.61,13.78a34.23,34.23,0,0,0,15.08-3.9V218.41h-9.23v-4l15.08-4.81h4.94V266l2.34,2.08,6.11.65v4.68h-19.24v-7.28c-7.8,5.59-14.69,8.58-21.06,8.58-11.18,0-17.42-6.89-17.42-19.89v-36.4h-9.23v-4l15.08-4.81Z" transform="translate(-209.68 -63.5)"/><path class="004f0d0a-24a5-4379-b74c-3b51b8342a6c" d="M1093.92,218.67v-4l8.58-3.77,5.59-12.1h4.81v13.79h19.76v6.11H1112.9V253c0,9.88,1.69,14.17,10.79,14.17a42.22,42.22,0,0,0,9-1v4.81a56.91,56.91,0,0,1-17,2.86c-10.79,0-13.52-3.9-13.52-13.13v-42Z" transform="translate(-209.68 -63.5)"/><path class="004f0d0a-24a5-4379-b74c-3b51b8342a6c" d="M1192.33,266.77a44.15,44.15,0,0,1-24.44,7.8c-17.16,0-29-12.87-29-32,0-19.63,12.61-33,30-33,14.17,0,23.4,9.62,23.4,25.61,0,1.3,0,2.6-.13,4h-42.12v1.43c0,16.64,8.71,26.52,21.84,26.52,6.5,0,13-2.6,20.41-7.54Zm-11.57-35.1c0-10.53-4.81-16.25-13.52-16.25-8.32,0-15.73,7.28-16.51,18.33h30Z" transform="translate(-209.68 -63.5)"/><path class="004f0d0a-24a5-4379-b74c-3b51b8342a6c" d="M1237.83,268.72l6.88-.65,2.34-2.08V218.67h-8.32v-4.16l8.32-1.95v-1.43c0-21.59,11.06-34.46,26.4-34.46,6,0,10.14,3.25,10.14,7.41,0,3.12-1.95,5.59-5.33,6.5l-11.83-7.8c-5.59,2.6-8.45,9.36-8.45,20.29v9.49h18.07v6.11h-18.2V266l2.21,2.08,8.06.65v4.68h-30.29Z" transform="translate(-209.68 -63.5)"/><path class="004f0d0a-24a5-4379-b74c-3b51b8342a6c" d="M1341.05,242.07c0,19.24-12.87,32.5-30.29,32.5s-30.17-13.26-30.17-32.5,12.62-32.5,30.17-32.5S1341.05,222.83,1341.05,242.07Zm-48.24,0c0,16.77,7.55,26.91,18,26.91s18.07-10,18.07-26.91-7.54-26.91-18.07-26.91S1292.81,225.17,1292.81,242.07Z" transform="translate(-209.68 -63.5)"/><path class="004f0d0a-24a5-4379-b74c-3b51b8342a6c" d="M1349.75,268.72l6.89-.65L1359,266V218.93h-9.23v-4l15.08-4.68h4.94v12.22a154.38,154.38,0,0,1,13.91-12.61,13.72,13.72,0,0,1,3.25-.26,19.21,19.21,0,0,1,7.8,1.69v11.18h-4.16a8.13,8.13,0,0,0-6.63-3.12c-4.29,0-8.84,3.25-14.17,9.49V266l2.21,2.08,9.1.65v4.68h-31.33Z" transform="translate(-209.68 -63.5)"/><path class="004f0d0a-24a5-4379-b74c-3b51b8342a6c" d="M1434.9,218.67v-4l8.58-3.77,5.59-12.1h4.81v13.79h19.76v6.11h-19.76V253c0,9.88,1.69,14.17,10.79,14.17a42.22,42.22,0,0,0,9-1v4.81a56.91,56.91,0,0,1-17,2.86c-10.79,0-13.52-3.9-13.52-13.13v-42Z" transform="translate(-209.68 -63.5)"/><path class="004f0d0a-24a5-4379-b74c-3b51b8342a6c" d="M1498.34,177.71v39.66c8.71-4.81,15.47-7.8,21.06-7.8,11.31,0,17.42,6.76,17.42,19.76V266l2.34,2.08,6.89.65v4.68h-28.34v-4.68l6.11-.65L1526,266V231.54c0-9.49-3.51-13.39-13.13-13.39-4.16,0-9,1.43-14.56,4.29V266l2.34,2.08,6.11.65v4.68h-28.47v-4.68l7-.65,2.21-2.08V186.42h-10v-4l15.86-4.68Z" transform="translate(-209.68 -63.5)"/><path class="004f0d0a-24a5-4379-b74c-3b51b8342a6c" d="M1606.63,266.77a44.15,44.15,0,0,1-24.44,7.8c-17.16,0-29-12.87-29-32,0-19.63,12.61-33,30-33,14.17,0,23.4,9.62,23.4,25.61,0,1.3,0,2.6-.13,4h-42.12v1.43c0,16.64,8.71,26.52,21.84,26.52,6.5,0,13-2.6,20.41-7.54Zm-11.57-35.1c0-10.53-4.81-16.25-13.52-16.25-8.32,0-15.73,7.28-16.51,18.33h30Z" transform="translate(-209.68 -63.5)"/><path class="004f0d0a-24a5-4379-b74c-3b51b8342a6c" d="M1656.16,247.92h7.67l1.56,15,1.69,2.21c3.77,1.95,8.71,3,14.56,3,12.61,0,19.63-6.5,19.63-15.6,0-10.79-7.54-13.13-21.71-19.24-14.43-6.24-22-11-22-23.66,0-14.7,11.57-25,30-25a71.45,71.45,0,0,1,22.1,3.64V208.4H1703L1701,196l-2-2.21a23.59,23.59,0,0,0-11.7-2.73c-11,0-17.68,6.25-17.68,15.74,0,8.71,6.24,12,18.2,17,6.63,2.73,13.65,4.81,19.63,10.66a19.5,19.5,0,0,1,5.72,14.3c0,15.34-12.87,26.13-33.67,26.13-9.36,0-17.42-1.56-23.4-4.16Z" transform="translate(-209.68 -63.5)"/><path class="004f0d0a-24a5-4379-b74c-3b51b8342a6c" d="M1723.89,218.67v-4l8.58-3.77,5.59-12.1h4.81v13.79h19.76v6.11h-19.76V253c0,9.88,1.69,14.17,10.79,14.17a42.22,42.22,0,0,0,9-1v4.81a56.91,56.91,0,0,1-17,2.86c-10.79,0-13.52-3.9-13.52-13.13v-42Z" transform="translate(-209.68 -63.5)"/><path class="004f0d0a-24a5-4379-b74c-3b51b8342a6c" d="M1787.46,209.57v43c0,9.36,3.9,13.78,12.61,13.78a34.23,34.23,0,0,0,15.08-3.9V218.41h-9.23v-4l15.08-4.81h4.94V266l2.34,2.08,6.11.65v4.68h-19.24v-7.28c-7.8,5.59-14.69,8.58-21.06,8.58-11.18,0-17.42-6.89-17.42-19.89v-36.4h-9.23v-4l15.08-4.81Z" transform="translate(-209.68 -63.5)"/><path class="004f0d0a-24a5-4379-b74c-3b51b8342a6c" d="M1877.81,186.42v-4l15.86-4.68h4.94V266l2.21,2.08,6.24.65v4.68h-19.24v-6.76c-6.63,5.33-12.87,7.93-20,7.93-14.17,0-25.09-12.22-25.09-30.42,0-20.8,13.78-34.71,33.54-34.71a53.07,53.07,0,0,1,11.57,1.43V186.42Zm10,30.82a42.86,42.86,0,0,0-11.44-2.08c-13.13,0-22.23,10.53-22.23,26.78,0,15.21,7.8,24.44,19.5,24.44,4.68,0,9.36-1.56,14.17-4.55Z" transform="translate(-209.68 -63.5)"/><path class="004f0d0a-24a5-4379-b74c-3b51b8342a6c" d="M1939.56,210.87v4.81l-6.89.52-1.56,2.08,15.6,40.43L1963,218.28l-1-2.08-7-.52v-4.81H1978v4.81l-7.54,1-26,63.18c-6.11,14.69-12.35,21.84-20.8,21.84-5.46,0-9-3-9-7.28a9.53,9.53,0,0,1,3.38-7l12.48,4.94c3.51-3.77,7.28-10.27,10.53-19.5l-21.84-56.42-7.93-.78v-4.81Z" transform="translate(-209.68 -63.5)"/><path class="004f0d0a-24a5-4379-b74c-3b51b8342a6c" d="M2070.34,236.09a42.67,42.67,0,0,1-10.53,28,29.34,29.34,0,0,1-22.88,10.53c-13.39,0-22.1-9.62-22.1-24.7a44,44,0,0,1,10.4-28.47c6.24-7,14.17-10.79,23-10.79C2061.76,210.61,2070.34,220.36,2070.34,236.09ZM2025.88,250c0,12.48,4.81,19.24,12.61,19.24,11,0,20.8-14.17,20.8-33.93,0-12.87-4.81-19.63-12.74-19.63C2035.37,215.68,2025.88,229.85,2025.88,250Z" transform="translate(-209.68 -63.5)"/><path class="004f0d0a-24a5-4379-b74c-3b51b8342a6c" d="M2112.59,184c-4.94,3.25-8.84,13.4-11.7,30.3h18.33v5.85h-19.37l-5.2,36.92c-1.69,12-4,21.71-9.75,29.77-6.89,9.75-14,14.69-20.28,14.69-4.16,0-7-2.73-7-6.89a6.31,6.31,0,0,1,2.87-5.2L2074,292.9c6.11-6.37,8.32-18.2,10.79-35.49l5.46-37.31-8.71.91.13-4.29,9.88-4c4.29-22.37,15.21-34.46,27.3-34.46,6.24,0,10.79,3.77,10.79,7.67,0,3.38-2.34,6-6.37,6.76Z" transform="translate(-209.68 -63.5)"/><path class="004f0d0a-24a5-4379-b74c-3b51b8342a6c" d="M775.68,419c-8.58,0-16.12-1.82-22.1-5.2-13.91-7.93-22.49-23-22.49-40,0-27,18.07-45.12,45.11-45.12A86.28,86.28,0,0,1,801.94,333v20h-7.28l-1.95-11.83L791,338.87a34.08,34.08,0,0,0-14.56-3.38c-19.37,0-32,14.05-32,37.32,0,24.7,12.87,39.26,33.93,39.26a39.14,39.14,0,0,0,11.31-1.69l2.08-2.08,2.86-14.43h7.28v20.54A80.31,80.31,0,0,1,775.68,419Z" transform="translate(-209.68 -63.5)"/><path class="004f0d0a-24a5-4379-b74c-3b51b8342a6c" d="M872.92,386.07c0,19.24-12.87,32.5-30.29,32.5s-30.16-13.26-30.16-32.5,12.61-32.5,30.16-32.5S872.92,366.83,872.92,386.07Zm-48.23,0c0,16.77,7.54,26.91,17.94,26.91s18.07-10,18.07-26.91-7.54-26.91-18.07-26.91S824.69,369.17,824.69,386.07Z" transform="translate(-209.68 -63.5)"/><path class="004f0d0a-24a5-4379-b74c-3b51b8342a6c" d="M901.13,353.57v43c0,9.36,3.9,13.78,12.61,13.78a34.23,34.23,0,0,0,15.08-3.9V362.41h-9.23v-4l15.08-4.81h4.94V410l2.34,2.08,6.11.65v4.68H928.82v-7.28c-7.8,5.59-14.69,8.58-21.06,8.58-11.18,0-17.42-6.89-17.42-19.89v-36.4h-9.23v-4l15.08-4.81Z" transform="translate(-209.68 -63.5)"/><path class="004f0d0a-24a5-4379-b74c-3b51b8342a6c" d="M955.59,412.72l7-.65,2.21-2.08V362.93h-9.24v-4l15.08-4.68h5v7.15c8.71-4.81,15.34-7.8,20.93-7.8,11.31,0,17.55,6.76,17.55,19.76V410l2.21,2.08,7,.65v4.68H994.86v-4.68l6.24-.65,2.21-2.08V375.54c0-9.49-3.51-13.39-13.13-13.39-4.16,0-9,1.43-14.56,4.29V410l2.21,2.08,6.24.65v4.68H955.59Z" transform="translate(-209.68 -63.5)"/><path class="004f0d0a-24a5-4379-b74c-3b51b8342a6c" d="M1028.78,362.67v-4l8.58-3.77,5.6-12.1h4.8v13.79h19.77v6.11h-19.77V397c0,9.88,1.7,14.17,10.8,14.17a42.22,42.22,0,0,0,9-1v4.81a56.91,56.91,0,0,1-17,2.86c-10.79,0-13.53-3.9-13.53-13.13v-42Z" transform="translate(-209.68 -63.5)"/><path class="004f0d0a-24a5-4379-b74c-3b51b8342a6c" d="M1127.2,410.77a44.15,44.15,0,0,1-24.44,7.8c-17.17,0-29-12.87-29-32,0-19.63,12.62-33,30-33,14.18,0,23.41,9.62,23.41,25.61,0,1.3,0,2.6-.13,4h-42.13v1.43c0,16.64,8.72,26.52,21.85,26.52,6.5,0,13-2.6,20.41-7.54Zm-11.57-35.1c0-10.53-4.81-16.25-13.52-16.25-8.32,0-15.73,7.28-16.52,18.33h30Z" transform="translate(-209.68 -63.5)"/><path class="004f0d0a-24a5-4379-b74c-3b51b8342a6c" d="M1136.68,412.72l6.89-.65,2.34-2.08V362.93h-9.23v-4l15.08-4.68h4.94v12.22a154.38,154.38,0,0,1,13.91-12.61,13.76,13.76,0,0,1,3.26-.26,19.28,19.28,0,0,1,7.8,1.69v11.18h-4.17a8.13,8.13,0,0,0-6.62-3.12c-4.3,0-8.85,3.25-14.18,9.49V410l2.21,2.08,9.1.65v4.68h-31.33Z" transform="translate(-209.68 -63.5)"/><path class="004f0d0a-24a5-4379-b74c-3b51b8342a6c" d="M1185.69,362.67v-4l8.58-3.77,5.59-12.1h4.81v13.79h19.76v6.11h-19.76V397c0,9.88,1.69,14.17,10.79,14.17a42.22,42.22,0,0,0,9-1v4.81a56.91,56.91,0,0,1-17,2.86c-10.79,0-13.52-3.9-13.52-13.13v-42Z" transform="translate(-209.68 -63.5)"/><path class="004f0d0a-24a5-4379-b74c-3b51b8342a6c" d="M1284.1,410.77a44.15,44.15,0,0,1-24.44,7.8c-17.16,0-29-12.87-29-32,0-19.63,12.61-33,30-33,14.17,0,23.4,9.62,23.4,25.61,0,1.3,0,2.6-.13,4h-42.12v1.43c0,16.64,8.71,26.52,21.84,26.52,6.5,0,13-2.6,20.41-7.54Zm-11.57-35.1c0-10.53-4.81-16.25-13.52-16.25-8.32,0-15.73,7.28-16.51,18.33h30Z" transform="translate(-209.68 -63.5)"/><path class="004f0d0a-24a5-4379-b74c-3b51b8342a6c" d="M1293.59,412.72l6.89-.65,2.34-2.08V362.93h-9.23v-4l15.08-4.68h4.94v12.22a154.38,154.38,0,0,1,13.91-12.61,13.72,13.72,0,0,1,3.25-.26,19.21,19.21,0,0,1,7.8,1.69v11.18h-4.16a8.13,8.13,0,0,0-6.63-3.12c-4.29,0-8.84,3.25-14.17,9.49V410l2.21,2.08,9.1.65v4.68h-31.33Z" transform="translate(-209.68 -63.5)"/><path class="004f0d0a-24a5-4379-b74c-3b51b8342a6c" d="M1343.25,412.72l6.89-.65,2.34-2.08V362.93h-9.23v-4l15.08-4.68h4.94v12.22a154.38,154.38,0,0,1,13.91-12.61,13.72,13.72,0,0,1,3.25-.26,19.21,19.21,0,0,1,7.8,1.69v11.18h-4.16a8.13,8.13,0,0,0-6.63-3.12c-4.29,0-8.84,3.25-14.17,9.49V410l2.21,2.08,9.1.65v4.68h-31.33Z" transform="translate(-209.68 -63.5)"/><path class="004f0d0a-24a5-4379-b74c-3b51b8342a6c" d="M1454.27,386.07c0,19.24-12.87,32.5-30.29,32.5s-30.16-13.26-30.16-32.5,12.61-32.5,30.16-32.5S1454.27,366.83,1454.27,386.07Zm-48.23,0c0,16.77,7.54,26.91,17.94,26.91s18.07-10,18.07-26.91-7.54-26.91-18.07-26.91S1406,369.17,1406,386.07Z" transform="translate(-209.68 -63.5)"/><path class="004f0d0a-24a5-4379-b74c-3b51b8342a6c" d="M1463,412.72l6.89-.65,2.34-2.08V362.93H1463v-4l15.08-4.68H1483v12.22a154.38,154.38,0,0,1,13.91-12.61,13.72,13.72,0,0,1,3.25-.26,19.21,19.21,0,0,1,7.8,1.69v11.18h-4.16a8.13,8.13,0,0,0-6.63-3.12c-4.29,0-8.84,3.25-14.17,9.49V410l2.21,2.08,9.1.65v4.68H1463Z" transform="translate(-209.68 -63.5)"/><path class="004f0d0a-24a5-4379-b74c-3b51b8342a6c" d="M1533.18,354.22V410l2.34,2.08,7,.65v4.68h-29.25v-4.68l6.89-.65,2.21-2.08V362.93h-9.1v-4l15-4.68Zm3.12-21.33a7.54,7.54,0,1,1-7.54-7.54A7.55,7.55,0,0,1,1536.3,332.89Z" transform="translate(-209.68 -63.5)"/><path class="004f0d0a-24a5-4379-b74c-3b51b8342a6c" d="M1589.86,371.12h-6.37l-1-9.23a20.1,20.1,0,0,0-9.62-2.73c-6.89,0-10.79,3.51-10.79,9.36,0,5.59,3.77,8.32,11,11.83,4.55,2.21,9.49,4,13.78,7.54,3.12,2.47,4.94,6.37,4.94,11.18,0,12.09-9,19.5-24.31,19.5a49,49,0,0,1-16.91-2.73v-16.9h6.24L1558.4,410a21.94,21.94,0,0,0,11,3.12c7.54,0,12.22-4.42,12.22-10.53,0-6.76-4.68-9.1-13.26-13-11.05-4.94-16.78-9.1-16.78-17.81,0-11.44,8.2-18.2,23-18.2a37.35,37.35,0,0,1,15.21,2.86Z" transform="translate(-209.68 -63.5)"/><path class="004f0d0a-24a5-4379-b74c-3b51b8342a6c" d="M1678.52,353.57c10.27,0,16.77,6.89,16.77,19.76V410l2.21,2.08,6.89.65v4.68h-28.34v-4.68l6.11-.65,2.34-2.08V375.54c0-9.1-3.64-13.39-11.7-13.39-4.16,0-9.1,1.56-14.69,4.29V410l2.34,2.08,6.11.65v4.68h-27.69v-4.68l6.24-.65,2.21-2.08V375.54c0-9.1-3.64-13.39-11.44-13.39-4.29,0-9.1,1.43-14.82,4.29V410l2.21,2.08,6.24.65v4.68H1601v-4.68l7-.65,2.22-2.08V362.93H1601v-4l15.08-4.68h4.94v7.15c8.58-5.07,15.34-7.8,20.8-7.8a15.31,15.31,0,0,1,14.3,8.71C1665.91,356.56,1673.32,353.57,1678.52,353.57Z" transform="translate(-209.68 -63.5)"/><path class="004f0d0a-24a5-4379-b74c-3b51b8342a6c" d="M1805.65,395.17c3.9-5.59,6.38-10.53,7.28-15.34l-2.34-2.47-7.15-1v-5.2h26.4v5.2l-9.36,1.3a68.6,68.6,0,0,1-10.8,22.1l10.15,11.7,11.83.65v5.33h-22.89v-3.12l-5.85-6.5c-8.58,7.41-16.9,11.18-25.48,11.18-16.25,0-27.69-11.18-27.69-25.61,0-10.4,5.72-18.07,17.16-23.27-7-6.89-10.66-12.87-10.66-19.9,0-12,10-21.58,23.66-21.58s22.36,8.71,22.36,19.5c0,10.41-5.85,16.78-19,22.89Zm-43.94-4.55c0,11.83,7.93,20.54,19.11,20.54,6.63,0,12.48-2.47,18.07-7.8l-27-29.51C1765,378.53,1761.71,383.6,1761.71,390.62Zm29.77-41.86c0-8.58-4.94-14.18-12.74-14.18-6.89,0-12.09,5.34-12.09,12.75,0,6.76,4.16,12.35,12.09,19.37C1787.45,362.67,1791.48,357.21,1791.48,348.76Z" transform="translate(-209.68 -63.5)"/><path class="004f0d0a-24a5-4379-b74c-3b51b8342a6c" d="M1905.62,330.16v5.2l-8.06.78-2.34,1.83V385c0,17.68,6.63,25.87,23.27,25.87,16.38,0,23.14-8.19,23.14-25.87V338.87l-2.47-2.34-7.8-1.17v-5.2h27.43v5.2l-7.8,1.17-2.34,2.34V386.2c0,9.49-.65,16.77-5.72,22.88S1928.37,419,1916,419s-22-3.9-26.91-9.88-5.72-13.26-5.72-22.88V338l-2.21-1.83-7.41-.78v-5.2Z" transform="translate(-209.68 -63.5)"/><path class="004f0d0a-24a5-4379-b74c-3b51b8342a6c" d="M1964.64,412.72l7-.65,2.21-2.08V362.93h-9.23v-4l15.08-4.68h4.94v7.15c8.71-4.81,15.34-7.8,20.93-7.8,11.31,0,17.55,6.76,17.55,19.76V410l2.21,2.08,7,.65v4.68H2003.9v-4.68l6.24-.65,2.21-2.08V375.54c0-9.49-3.51-13.39-13.13-13.39-4.16,0-9,1.43-14.56,4.29V410l2.21,2.08,6.24.65v4.68h-28.47Z" transform="translate(-209.68 -63.5)"/><path class="004f0d0a-24a5-4379-b74c-3b51b8342a6c" d="M2068.64,418.31c-17.68,0-29.25-13-29.25-32.24s12.61-32.5,30.81-32.5c12.48,0,19.5,5.2,19.5,12.74,0,4.16-2.86,6.89-7.28,6.89a10.48,10.48,0,0,1-5.85-1.95V360.59a12,12,0,0,0-6.24-1.82c-11.18,0-19.11,10-19.11,26.39,0,16,8.58,25.48,22.1,25.48,5.72,0,11-1.82,16.51-5.46v6.76C2082.68,416.1,2075.66,418.31,2068.64,418.31Z" transform="translate(-209.68 -63.5)"/><path class="004f0d0a-24a5-4379-b74c-3b51b8342a6c" d="M2157.82,386.07c0,19.24-12.87,32.5-30.29,32.5s-30.16-13.26-30.16-32.5,12.61-32.5,30.16-32.5S2157.82,366.83,2157.82,386.07Zm-48.23,0c0,16.77,7.54,26.91,17.94,26.91s18.07-10,18.07-26.91-7.54-26.91-18.07-26.91S2109.59,369.17,2109.59,386.07Z" transform="translate(-209.68 -63.5)"/><path class="004f0d0a-24a5-4379-b74c-3b51b8342a6c" d="M2166.53,412.72l7-.65,2.21-2.08V362.93h-9.23v-4l15.08-4.68h4.94v7.15c8.71-4.81,15.34-7.8,20.93-7.8,11.31,0,17.55,6.76,17.55,19.76V410l2.21,2.08,7,.65v4.68h-28.47v-4.68l6.24-.65,2.21-2.08V375.54c0-9.49-3.51-13.39-13.13-13.39-4.16,0-9,1.43-14.56,4.29V410l2.21,2.08,6.24.65v4.68h-28.47Z" transform="translate(-209.68 -63.5)"/><path class="004f0d0a-24a5-4379-b74c-3b51b8342a6c" d="M2264,354.87v4.81l-6.89.52-1.56,2.08,15.21,42.51,16.64-42.51-1-2.08-7-.52v-4.81h23v4.81l-7.67,1L2272,417.4h-7.28l-20.93-56.94-7.93-.78v-4.81Z" transform="translate(-209.68 -63.5)"/><path class="004f0d0a-24a5-4379-b74c-3b51b8342a6c" d="M2358.93,410.77a44.15,44.15,0,0,1-24.44,7.8c-17.16,0-29-12.87-29-32,0-19.63,12.61-33,30-33,14.17,0,23.4,9.62,23.4,25.61,0,1.3,0,2.6-.13,4h-42.13v1.43c0,16.64,8.72,26.52,21.85,26.52,6.5,0,13-2.6,20.41-7.54Zm-11.57-35.1c0-10.53-4.81-16.25-13.52-16.25-8.32,0-15.73,7.28-16.51,18.33h30Z" transform="translate(-209.68 -63.5)"/><path class="004f0d0a-24a5-4379-b74c-3b51b8342a6c" d="M2368.42,412.72l7-.65,2.21-2.08V362.93h-9.23v-4l15.08-4.68h4.94v7.15c8.71-4.81,15.34-7.8,20.93-7.8,11.31,0,17.55,6.76,17.55,19.76V410l2.21,2.08,7,.65v4.68h-28.47v-4.68l6.24-.65,2.21-2.08V375.54c0-9.49-3.51-13.39-13.13-13.39-4.16,0-9,1.43-14.56,4.29V410l2.21,2.08,6.24.65v4.68h-28.47Z" transform="translate(-209.68 -63.5)"/><path class="004f0d0a-24a5-4379-b74c-3b51b8342a6c" d="M2441.6,362.67v-4l8.58-3.77,5.59-12.1h4.81v13.79h19.76v6.11h-19.76V397c0,9.88,1.69,14.17,10.8,14.17a42.05,42.05,0,0,0,9-1v4.81a56.91,56.91,0,0,1-17,2.86c-10.79,0-13.52-3.9-13.52-13.13v-42Z" transform="translate(-209.68 -63.5)"/><path class="004f0d0a-24a5-4379-b74c-3b51b8342a6c" d="M2506.21,354.22V410l2.34,2.08,7,.65v4.68h-29.25v-4.68l6.89-.65,2.21-2.08V362.93h-9.1v-4l14.95-4.68Zm3.12-21.33a7.54,7.54,0,1,1-7.54-7.54A7.55,7.55,0,0,1,2509.33,332.89Z" transform="translate(-209.68 -63.5)"/><path class="004f0d0a-24a5-4379-b74c-3b51b8342a6c" d="M2583.44,386.07c0,19.24-12.87,32.5-30.29,32.5S2523,405.31,2523,386.07s12.61-32.5,30.17-32.5S2583.44,366.83,2583.44,386.07Zm-48.24,0c0,16.77,7.55,26.91,18,26.91s18.07-10,18.07-26.91-7.54-26.91-18.07-26.91S2535.2,369.17,2535.2,386.07Z" transform="translate(-209.68 -63.5)"/><path class="004f0d0a-24a5-4379-b74c-3b51b8342a6c" d="M2592.14,412.72l7-.65,2.21-2.08V362.93h-9.23v-4l15.08-4.68h4.94v7.15c8.71-4.81,15.34-7.8,20.93-7.8,11.31,0,17.55,6.76,17.55,19.76V410l2.21,2.08,7,.65v4.68H2631.4v-4.68l6.24-.65,2.21-2.08V375.54c0-9.49-3.51-13.39-13.13-13.39-4.16,0-9,1.43-14.56,4.29V410l2.21,2.08,6.24.65v4.68h-28.47Z" transform="translate(-209.68 -63.5)"/><path class="004f0d0a-24a5-4379-b74c-3b51b8342a6c" d="M2684.18,418.31c-10.27,0-16.64-6.89-16.64-16.64,0-13.52,12-17.42,38-23.66v-4.16c0-10.27-2.6-14.56-12-14.56a25.46,25.46,0,0,0-9.88,2.08v10.92h-9c-3,0-4-.91-4-4,0-7.93,9.88-14.69,26.26-14.69,13.65,0,19.37,5.59,19.37,18.72V410l2.34,2.08,6.89.65v4.68h-18.33l-1.69-7.54C2697.31,415.45,2690.42,418.31,2684.18,418.31Zm21.32-35.75c-18.33,5.07-26.52,8.58-26.52,18.07,0,6.37,3.9,10.66,10.4,10.66,4.29,0,9.62-2.08,16.12-5.85Z" transform="translate(-209.68 -63.5)"/><path class="004f0d0a-24a5-4379-b74c-3b51b8342a6c" d="M2731.63,412.72l7.67-.65,2.21-2.08V330.42h-10v-4l15.86-4.68h4.94V410l2.34,2.08,7.41.65v4.68h-30.42Z" transform="translate(-209.68 -63.5)"/><path class="004f0d0a-24a5-4379-b74c-3b51b8342a6c" d="M2809,337.18l-8.19-1.82v-5.2h29.12v5.2l-8.19,1-1,1.82,16.77,60.07,20.93-68.13h9.1l21.32,69.56,15.73-61-1.43-1.81-8.71-1.57v-5.2h26.91v5.2l-8.71,1.82-20.67,80.22h-8.84l-22-71.11-21.58,71.11h-8.71Z" transform="translate(-209.68 -63.5)"/><path class="004f0d0a-24a5-4379-b74c-3b51b8342a6c" d="M2943.53,418.31c-10.27,0-16.64-6.89-16.64-16.64,0-13.52,12-17.42,38-23.66v-4.16c0-10.27-2.6-14.56-12-14.56a25.46,25.46,0,0,0-9.88,2.08v10.92h-9c-3,0-4-.91-4-4,0-7.93,9.88-14.69,26.26-14.69,13.65,0,19.37,5.59,19.37,18.72V410l2.34,2.08,6.89.65v4.68h-18.33l-1.69-7.54C2956.66,415.45,2949.77,418.31,2943.53,418.31Zm21.32-35.75c-18.33,5.07-26.52,8.58-26.52,18.07,0,6.37,3.9,10.66,10.4,10.66,4.29,0,9.62-2.08,16.12-5.85Z" transform="translate(-209.68 -63.5)"/><path class="004f0d0a-24a5-4379-b74c-3b51b8342a6c" d="M2991.24,412.72l6.89-.65,2.34-2.08V362.93h-9.23v-4l15.08-4.68h4.94v12.22a154.38,154.38,0,0,1,13.91-12.61,13.72,13.72,0,0,1,3.25-.26,19.21,19.21,0,0,1,7.8,1.69v11.18h-4.16a8.13,8.13,0,0,0-6.63-3.12c-4.29,0-8.84,3.25-14.17,9.49V410l2.21,2.08,9.1.65v4.68h-31.33Z" transform="translate(-209.68 -63.5)"/></g></svg>