<svg xmlns="http://www.w3.org/2000/svg" viewBox="0 0 3555.66 484.97"><defs><style>.\30 59eb001-300b-4e38-bf9f-df25037466d8,.\35 2990e7c-11ff-4e48-9ac4-5c2fb42ee7bd{fill:#fff;}.\37 83df27f-dab3-431a-96a1-6864e898eff6,.\39 079d8dc-5ca3-45f6-8f7b-6fb1764a068b{fill:none;}.\35 2990e7c-11ff-4e48-9ac4-5c2fb42ee7bd,.\37 83df27f-dab3-431a-96a1-6864e898eff6,.\39 079d8dc-5ca3-45f6-8f7b-6fb1764a068b{stroke:#fff;stroke-miterlimit:10;}.\39 079d8dc-5ca3-45f6-8f7b-6fb1764a068b{stroke-width:4px;}.\37 83df27f-dab3-431a-96a1-6864e898eff6{stroke-width:10px;}</style></defs><title>iscuw-full-white</title><g id="b0413a6a-fff8-4cc4-915c-ed00eccefaa5" data-name="crosshair"><path class="059eb001-300b-4e38-bf9f-df25037466d8" d="M555.31,308.39h0v-9.2h0l-42.79-4-1-.08H454.69V287.9c1.89-5.06,3.07-12.4,3.07-20.55,0-15.29-4.15-27.67-9.26-27.67s-9.26,12.38-9.26,27.67c0,8.11,1.17,15.41,3,20.48v7.25H386l-1.12.08-42.81,4h0v9.2h0l42.84,4.15v0l1.09.1v0l0,0h56.25v31.4H418.45c-2.89,0-5.23,2.73-5.23,6.07s2.34,6.06,5.23,6.06h25.28c0,.13,0,.25,0,.36v1a4.94,4.94,0,0,0,1.34,3.4H429.44a.73.73,0,0,0-.72.74.72.72,0,0,0,.72.72h16.17v2.78a3,3,0,0,0,2.28,2.94v2.49a.72.72,0,1,0,1.43,0v-2.49a3,3,0,0,0,2.27-2.94v-2.78h16.33a.72.72,0,0,0,.71-.72.74.74,0,0,0-.71-.74H452.16a4.94,4.94,0,0,0,1.34-3.4v-1c0-.11,0-.23,0-.36h24.94c2.9,0,5.23-2.71,5.23-6.06s-2.33-6.07-5.23-6.07H454.69v-31.4h56.79l0,0,43.83-4.25Z" transform="translate(-209.68 -63.5)"/><path class="9079d8dc-5ca3-45f6-8f7b-6fb1764a068b" d="M401,402.14h-43a5,5,0,0,1-5-5V352.83" transform="translate(-209.68 -63.5)"/><path class="9079d8dc-5ca3-45f6-8f7b-6fb1764a068b" d="M544.34,352.83v44.31a5,5,0,0,1-5,5H496.7" transform="translate(-209.68 -63.5)"/><path class="9079d8dc-5ca3-45f6-8f7b-6fb1764a068b" d="M496.7,208.86h42.64a5,5,0,0,1,5,5v43" transform="translate(-209.68 -63.5)"/><path class="9079d8dc-5ca3-45f6-8f7b-6fb1764a068b" d="M353.06,256.83v-43a5,5,0,0,1,5-5h43" transform="translate(-209.68 -63.5)"/><path class="52990e7c-11ff-4e48-9ac4-5c2fb42ee7bd" d="M639.2,306c0,104.93-85.06,190-190,190s-190-85.07-190-190,85.07-190,190-190S639.2,201.07,639.2,306Zm-190-177.5A177.5,177.5,0,1,0,626.7,306,177.5,177.5,0,0,0,449.2,128.5Z" transform="translate(-209.68 -63.5)"/><line class="783df27f-dab3-431a-96a1-6864e898eff6" x1="119.95" y1="362.07" x2="88.61" y2="393.41"/><line class="783df27f-dab3-431a-96a1-6864e898eff6" x1="390.63" y1="91.39" x2="359.3" y2="122.72"/><line class="783df27f-dab3-431a-96a1-6864e898eff6" x1="88.56" y1="91.54" x2="119.79" y2="122.77"/><line class="783df27f-dab3-431a-96a1-6864e898eff6" x1="359.47" y1="362.45" x2="390.7" y2="393.68"/><line class="783df27f-dab3-431a-96a1-6864e898eff6" x1="394.82" y1="242" x2="479.82" y2="242"/><line class="783df27f-dab3-431a-96a1-6864e898eff6" y1="242" x2="85" y2="242"/><line class="783df27f-dab3-431a-96a1-6864e898eff6" x1="239.52" y1="399.97" x2="239.52" y2="484.97"/><line class="783df27f-dab3-431a-96a1-6864e898eff6" x1="239.52" x2="239.52" y2="85"/></g><g id="594413b4-bc2c-4a58-9842-c4fca33f5710" data-name="text"><path class="059eb001-300b-4e38-bf9f-df25037466d8" d="M757.77,264.11l9.92-.78,2.64-2.17v-85.4l-2.64-2.17-9.92-.93v-6.2H797v6.2l-9.92.93-2.64,2.17v85.4l2.64,2.17,9.92.78v6.35H757.77Z" transform="translate(-209.68 -63.5)"/><path class="059eb001-300b-4e38-bf9f-df25037466d8" d="M807.21,264.88l8.37-.77,2.64-2.48V205.52h-11v-4.81l18-5.58h5.89v8.53c10.39-5.74,18.29-9.3,25-9.3,13.48,0,20.92,8.06,20.92,23.56v43.71l2.64,2.48,8.37.77v5.58H854v-5.58l7.44-.77,2.64-2.48V220.55c0-11.31-4.19-16-15.66-16-5,0-10.69,1.7-17.36,5.11v51.93l2.64,2.48,7.44.77v5.58H807.21Z" transform="translate(-209.68 -63.5)"/><path class="059eb001-300b-4e38-bf9f-df25037466d8" d="M943.92,215.28h-7.59l-1.24-11A24,24,0,0,0,923.62,201c-8.22,0-12.87,4.19-12.87,11.16,0,6.67,4.5,9.92,13.18,14.11,5.42,2.63,11.31,4.8,16.43,9,3.72,2.94,5.89,7.59,5.89,13.33,0,14.41-10.7,23.25-29,23.25a58.25,58.25,0,0,1-20.15-3.26V248.45h7.44l1.86,13.18a26.16,26.16,0,0,0,13.18,3.72c9,0,14.57-5.27,14.57-12.56,0-8.06-5.58-10.85-15.81-15.5-13.18-5.89-20-10.85-20-21.23,0-13.64,9.77-21.7,27.44-21.7a44.43,44.43,0,0,1,18.13,3.41Z" transform="translate(-209.68 -63.5)"/><path class="059eb001-300b-4e38-bf9f-df25037466d8" d="M956.48,205.21V200.4l10.23-4.49,6.66-14.42h5.74v16.43h23.56v7.29H979.11v40.92c0,11.78,2,16.89,12.86,16.89a50.06,50.06,0,0,0,10.7-1.24v5.74a68,68,0,0,1-20.31,3.41c-12.86,0-16.12-4.65-16.12-15.66V205.21Z" transform="translate(-209.68 -63.5)"/><path class="059eb001-300b-4e38-bf9f-df25037466d8" d="M1033.51,195.13v66.5l2.79,2.48,8.37.77v5.58H1009.8v-5.58l8.21-.77,2.64-2.48V205.52H1009.8v-4.81l17.82-5.58Zm3.72-25.42a9,9,0,1,1-9-9A9,9,0,0,1,1037.23,169.71Z" transform="translate(-209.68 -63.5)"/><path class="059eb001-300b-4e38-bf9f-df25037466d8" d="M1051.65,205.21V200.4l10.23-4.49,6.66-14.42h5.74v16.43h23.56v7.29h-23.56v40.92c0,11.78,2,16.89,12.86,16.89a50.06,50.06,0,0,0,10.7-1.24v5.74a68,68,0,0,1-20.31,3.41c-12.86,0-16.12-4.65-16.12-15.66V205.21Z" transform="translate(-209.68 -63.5)"/><path class="059eb001-300b-4e38-bf9f-df25037466d8" d="M1127.44,194.36v51.3c0,11.16,4.65,16.43,15,16.43,5.73,0,11.62-1.55,18-4.65V204.9h-11v-4.81l18-5.73h5.89v67.27l2.79,2.48,7.29.77v5.58h-22.94v-8.68c-9.3,6.67-17.52,10.23-25.11,10.23-13.33,0-20.77-8.21-20.77-23.71V204.9h-11v-4.81l18-5.73Z" transform="translate(-209.68 -63.5)"/><path class="059eb001-300b-4e38-bf9f-df25037466d8" d="M1191.61,205.21V200.4l10.23-4.49,6.66-14.42h5.74v16.43h23.56v7.29h-23.56v40.92c0,11.78,2,16.89,12.86,16.89a50.06,50.06,0,0,0,10.7-1.24v5.74a68,68,0,0,1-20.31,3.41c-12.86,0-16.12-4.65-16.12-15.66V205.21Z" transform="translate(-209.68 -63.5)"/><path class="059eb001-300b-4e38-bf9f-df25037466d8" d="M1308.94,262.56a52.63,52.63,0,0,1-29.14,9.3c-20.46,0-34.56-15.35-34.56-38.13,0-23.41,15-39.37,35.8-39.37,16.9,0,27.9,11.47,27.9,30.53,0,1.55,0,3.1-.15,4.81h-50.22v1.7c0,19.84,10.39,31.62,26,31.62,7.75,0,15.5-3.1,24.33-9Zm-13.79-41.85c0-12.56-5.74-19.38-16.12-19.38-9.92,0-18.76,8.68-19.69,21.86h35.81Z" transform="translate(-209.68 -63.5)"/><path class="059eb001-300b-4e38-bf9f-df25037466d8" d="M1363.19,264.88l8.22-.77,2.79-2.48V205.21h-9.92v-5l9.92-2.33v-1.7c0-25.73,13.17-41.08,31.46-41.08,7.13,0,12.09,3.88,12.09,8.84,0,3.72-2.32,6.66-6.35,7.75l-14.11-9.3c-6.66,3.1-10.07,11.16-10.07,24.18v11.31h21.54v7.29h-21.7v56.42l2.64,2.48,9.61.77v5.58h-36.12Z" transform="translate(-209.68 -63.5)"/><path class="059eb001-300b-4e38-bf9f-df25037466d8" d="M1486.26,233.11c0,22.94-15.34,38.75-36.11,38.75s-36-15.81-36-38.75c0-23.1,15-38.75,36-38.75S1486.26,210.17,1486.26,233.11Zm-57.5,0c0,20,9,32.08,21.39,32.08s21.54-11.93,21.54-32.08-9-32.09-21.54-32.09S1428.76,213,1428.76,233.11Z" transform="translate(-209.68 -63.5)"/><path class="059eb001-300b-4e38-bf9f-df25037466d8" d="M1496.65,264.88l8.21-.77,2.79-2.48V205.52h-11v-4.81l18-5.58h5.89V209.7a182.53,182.53,0,0,1,16.58-15,16.4,16.4,0,0,1,3.88-.31,23,23,0,0,1,9.3,2V209.7h-5a9.71,9.71,0,0,0-7.91-3.72c-5.11,0-10.54,3.88-16.89,11.32v44.33l2.63,2.48,10.85.77v5.58h-37.35Z" transform="translate(-209.68 -63.5)"/><path class="059eb001-300b-4e38-bf9f-df25037466d8" d="M1598.17,205.21V200.4l10.23-4.49,6.66-14.42h5.74v16.43h23.56v7.29H1620.8v40.92c0,11.78,2,16.89,12.87,16.89a50,50,0,0,0,10.69-1.24v5.74a68,68,0,0,1-20.31,3.41c-12.86,0-16.12-4.65-16.12-15.66V205.21Z" transform="translate(-209.68 -63.5)"/><path class="059eb001-300b-4e38-bf9f-df25037466d8" d="M1673.81,156.38v47.28c10.38-5.74,18.44-9.3,25.11-9.3,13.48,0,20.77,8.06,20.77,23.56v43.71l2.79,2.48,8.21.77v5.58H1696.9v-5.58l7.29-.77,2.63-2.48V220.55c0-11.31-4.18-16-15.65-16-5,0-10.7,1.7-17.36,5.11v51.93l2.79,2.48,7.28.77v5.58h-33.94v-5.58l8.37-.77,2.63-2.48V166.77H1649V162l18.91-5.58Z" transform="translate(-209.68 -63.5)"/><path class="059eb001-300b-4e38-bf9f-df25037466d8" d="M1802.92,262.56a52.63,52.63,0,0,1-29.14,9.3c-20.46,0-34.56-15.35-34.56-38.13,0-23.41,15-39.37,35.8-39.37,16.9,0,27.9,11.47,27.9,30.53,0,1.55,0,3.1-.15,4.81h-50.22v1.7c0,19.84,10.38,31.62,26,31.62,7.75,0,15.5-3.1,24.33-9Zm-13.79-41.85c0-12.56-5.74-19.38-16.12-19.38-9.92,0-18.76,8.68-19.69,21.86h35.81Z" transform="translate(-209.68 -63.5)"/><path class="059eb001-300b-4e38-bf9f-df25037466d8" d="M1862,240.08h9.14l1.86,17.83,2,2.63c4.49,2.33,10.38,3.57,17.36,3.57,15,0,23.4-7.75,23.4-18.6,0-12.87-9-15.66-25.88-22.94-17.21-7.44-26.2-13.18-26.2-28.21,0-17.52,13.8-29.76,35.81-29.76a85.09,85.09,0,0,1,26.35,4.34v24h-8.06l-2.33-14.72-2.32-2.64a28.16,28.16,0,0,0-14-3.25c-13.18,0-21.08,7.44-21.08,18.75,0,10.39,7.44,14.26,21.7,20.31,7.9,3.25,16.27,5.73,23.4,12.71a23.22,23.22,0,0,1,6.82,17c0,18.29-15.34,31.15-40.14,31.15-11.16,0-20.77-1.86-27.9-5Z" transform="translate(-209.68 -63.5)"/><path class="059eb001-300b-4e38-bf9f-df25037466d8" d="M1942.73,205.21V200.4l10.23-4.49,6.67-14.42h5.73v16.43h23.56v7.29h-23.56v40.92c0,11.78,2,16.89,12.87,16.89a50,50,0,0,0,10.69-1.24v5.74a68,68,0,0,1-20.3,3.41c-12.87,0-16.12-4.65-16.12-15.66V205.21Z" transform="translate(-209.68 -63.5)"/><path class="059eb001-300b-4e38-bf9f-df25037466d8" d="M2018.53,194.36v51.3c0,11.16,4.65,16.43,15,16.43,5.74,0,11.63-1.55,18-4.65V204.9h-11v-4.81l18-5.73h5.89v67.27l2.79,2.48,7.28.77v5.58h-22.94v-8.68c-9.3,6.67-17.51,10.23-25.11,10.23-13.33,0-20.77-8.21-20.77-23.71V204.9h-11v-4.81l18-5.73Z" transform="translate(-209.68 -63.5)"/><path class="059eb001-300b-4e38-bf9f-df25037466d8" d="M2126.25,166.77V162l18.91-5.58h5.89V261.63l2.64,2.48,7.44.77v5.58h-22.94V262.4c-7.91,6.36-15.35,9.46-23.87,9.46-16.9,0-29.92-14.57-29.92-36.27,0-24.8,16.43-41.39,40-41.39a63.07,63.07,0,0,1,13.8,1.71V166.77Zm11.94,36.73a51.1,51.1,0,0,0-13.64-2.48C2108.89,201,2098,213.58,2098,233c0,18.14,9.3,29.14,23.25,29.14,5.58,0,11.16-1.86,16.9-5.42Z" transform="translate(-209.68 -63.5)"/><path class="059eb001-300b-4e38-bf9f-df25037466d8" d="M2199.87,195.91v5.73l-8.21.62-1.86,2.48L2208.4,253l19.37-48.21-1.24-2.48-8.37-.62v-5.73h27.59v5.73l-9,1.24-31,75.33c-7.28,17.52-14.72,26-24.8,26-6.51,0-10.69-3.56-10.69-8.68,0-3.1,1.39-5.89,4-8.37l14.88,5.89c4.18-4.49,8.68-12.24,12.55-23.25l-26-67.27-9.45-.93v-5.73Z" transform="translate(-209.68 -63.5)"/><path class="059eb001-300b-4e38-bf9f-df25037466d8" d="M2355.8,226a50.87,50.87,0,0,1-12.55,33.32A35,35,0,0,1,2316,271.86c-16,0-26.35-11.47-26.35-29.45,0-12.56,4.65-25.11,12.4-33.95,7.44-8.37,16.89-12.86,27.43-12.86C2345.57,195.6,2355.8,207.22,2355.8,226Zm-53,16.58c0,14.88,5.74,22.94,15,22.94,13.17,0,24.8-16.89,24.8-40.45,0-15.35-5.74-23.41-15.19-23.41C2314.11,201.64,2302.79,218.54,2302.79,242.56Z" transform="translate(-209.68 -63.5)"/><path class="059eb001-300b-4e38-bf9f-df25037466d8" d="M2406.18,163.82c-5.89,3.88-10.54,16-13.95,36.12h21.85v7H2391l-6.2,44c-2,14.26-4.81,25.89-11.63,35.5-8.21,11.62-16.74,17.51-24.18,17.51-5,0-8.37-3.25-8.37-8.21a7.54,7.54,0,0,1,3.41-6.2l16.12,4.18c7.29-7.59,9.92-21.7,12.87-42.31l6.51-44.49L2369.13,208l.16-5.12,11.78-4.8c5.11-26.66,18.13-41.08,32.55-41.08,7.44,0,12.86,4.5,12.86,9.15,0,4-2.79,7.13-7.59,8.06Z" transform="translate(-209.68 -63.5)"/><path class="059eb001-300b-4e38-bf9f-df25037466d8" d="M812.17,436.32c-10.22,0-19.21-2.17-26.34-6.2C769.24,420.67,759,402.69,759,382.38c0-32.24,21.55-53.78,53.78-53.78,9.15,0,19.38,1.7,30.7,5.27v23.87H834.8l-2.32-14.11-2-2.79a40.67,40.67,0,0,0-17.35-4C790,336.81,775,353.55,775,381.3c0,29.45,15.34,46.81,40.45,46.81a46.59,46.59,0,0,0,13.49-2l2.48-2.48,3.4-17.2h8.69V430.9A96,96,0,0,1,812.17,436.32Z" transform="translate(-209.68 -63.5)"/><path class="059eb001-300b-4e38-bf9f-df25037466d8" d="M928.11,397.11c0,22.94-15.34,38.75-36.11,38.75s-36-15.81-36-38.75c0-23.1,15-38.75,36-38.75S928.11,374.17,928.11,397.11Zm-57.5,0c0,20,9,32.08,21.39,32.08s21.54-11.93,21.54-32.08S904.55,365,892,365,870.61,377,870.61,397.11Z" transform="translate(-209.68 -63.5)"/><path class="059eb001-300b-4e38-bf9f-df25037466d8" d="M961.75,358.36v51.3c0,11.16,4.65,16.43,15,16.43,5.74,0,11.63-1.55,18-4.65V368.9h-11v-4.81l18-5.73h5.89v67.27l2.79,2.48,7.28.77v5.58H994.76v-8.68c-9.3,6.67-17.51,10.23-25.11,10.23-13.33,0-20.77-8.21-20.77-23.71V368.9h-11v-4.81l18-5.73Z" transform="translate(-209.68 -63.5)"/><path class="059eb001-300b-4e38-bf9f-df25037466d8" d="M1026.69,428.88l8.37-.77,2.63-2.48V369.52h-11v-4.81l18-5.58h5.89v8.53c10.38-5.74,18.29-9.3,25-9.3,13.49,0,20.93,8.06,20.93,23.56v43.71l2.63,2.48,8.37.77v5.58H1073.5v-5.58l7.44-.77,2.63-2.48V384.55c0-11.31-4.18-16-15.65-16-5,0-10.7,1.7-17.36,5.11v51.93l2.63,2.48,7.44.77v5.58h-33.94Z" transform="translate(-209.68 -63.5)"/><path class="059eb001-300b-4e38-bf9f-df25037466d8" d="M1114,369.21V364.4l10.23-4.49,6.67-14.42h5.73v16.43h23.56v7.29h-23.56v40.92c0,11.78,2,16.89,12.87,16.89a50,50,0,0,0,10.69-1.24v5.74a68,68,0,0,1-20.3,3.41c-12.87,0-16.12-4.65-16.12-15.66V369.21Z" transform="translate(-209.68 -63.5)"/><path class="059eb001-300b-4e38-bf9f-df25037466d8" d="M1231.29,426.56a52.65,52.65,0,0,1-29.14,9.3c-20.46,0-34.57-15.35-34.57-38.13,0-23.41,15-39.37,35.81-39.37,16.89,0,27.9,11.47,27.9,30.53,0,1.55,0,3.1-.16,4.81h-50.22v1.7c0,19.84,10.39,31.62,26,31.62,7.75,0,15.5-3.1,24.34-9Zm-13.8-41.85c0-12.56-5.73-19.38-16.12-19.38-9.92,0-18.75,8.68-19.68,21.86h35.8Z" transform="translate(-209.68 -63.5)"/><path class="059eb001-300b-4e38-bf9f-df25037466d8" d="M1242.6,428.88l8.22-.77,2.79-2.48V369.52h-11v-4.81l18-5.58h5.89V373.7a184,184,0,0,1,16.59-15,16.32,16.32,0,0,1,3.87-.31,23,23,0,0,1,9.3,2V373.7h-5a9.69,9.69,0,0,0-7.9-3.72c-5.12,0-10.54,3.88-16.9,11.32v44.33l2.64,2.48,10.85.77v5.58H1242.6Z" transform="translate(-209.68 -63.5)"/><path class="059eb001-300b-4e38-bf9f-df25037466d8" d="M1301,369.21V364.4l10.23-4.49,6.66-14.42h5.74v16.43h23.56v7.29h-23.56v40.92c0,11.78,2,16.89,12.86,16.89a50.06,50.06,0,0,0,10.7-1.24v5.74a68,68,0,0,1-20.31,3.41c-12.86,0-16.12-4.65-16.12-15.66V369.21Z" transform="translate(-209.68 -63.5)"/><path class="059eb001-300b-4e38-bf9f-df25037466d8" d="M1418.37,426.56a52.63,52.63,0,0,1-29.14,9.3c-20.46,0-34.56-15.35-34.56-38.13,0-23.41,15-39.37,35.8-39.37,16.9,0,27.9,11.47,27.9,30.53,0,1.55,0,3.1-.16,4.81H1368v1.7c0,19.84,10.38,31.62,26,31.62,7.75,0,15.5-3.1,24.33-9Zm-13.79-41.85c0-12.56-5.74-19.38-16.12-19.38-9.92,0-18.76,8.68-19.69,21.86h35.81Z" transform="translate(-209.68 -63.5)"/><path class="059eb001-300b-4e38-bf9f-df25037466d8" d="M1429.69,428.88l8.21-.77,2.79-2.48V369.52h-11v-4.81l18-5.58h5.89V373.7a182.53,182.53,0,0,1,16.58-15,16.4,16.4,0,0,1,3.88-.31,23,23,0,0,1,9.3,2V373.7h-5a9.71,9.71,0,0,0-7.91-3.72c-5.11,0-10.54,3.88-16.89,11.32v44.33l2.63,2.48,10.85.77v5.58h-37.35Z" transform="translate(-209.68 -63.5)"/><path class="059eb001-300b-4e38-bf9f-df25037466d8" d="M1488.89,428.88l8.22-.77,2.79-2.48V369.52h-11v-4.81l18-5.58h5.89V373.7a184,184,0,0,1,16.59-15,16.32,16.32,0,0,1,3.87-.31,23,23,0,0,1,9.3,2V373.7h-5a9.69,9.69,0,0,0-7.9-3.72c-5.12,0-10.54,3.88-16.9,11.32v44.33l2.64,2.48,10.85.77v5.58h-37.36Z" transform="translate(-209.68 -63.5)"/><path class="059eb001-300b-4e38-bf9f-df25037466d8" d="M1621.26,397.11c0,22.94-15.34,38.75-36.11,38.75s-36-15.81-36-38.75c0-23.1,15-38.75,36-38.75S1621.26,374.17,1621.26,397.11Zm-57.5,0c0,20,9,32.08,21.39,32.08s21.54-11.93,21.54-32.08-9-32.09-21.54-32.09S1563.76,377,1563.76,397.11Z" transform="translate(-209.68 -63.5)"/><path class="059eb001-300b-4e38-bf9f-df25037466d8" d="M1631.65,428.88l8.21-.77,2.79-2.48V369.52h-11v-4.81l18-5.58h5.88V373.7a184,184,0,0,1,16.59-15,16.32,16.32,0,0,1,3.87-.31,22.93,22.93,0,0,1,9.3,2V373.7h-5a9.68,9.68,0,0,0-7.9-3.72c-5.12,0-10.54,3.88-16.9,11.32v44.33l2.64,2.48,10.85.77v5.58h-37.35Z" transform="translate(-209.68 -63.5)"/><path class="059eb001-300b-4e38-bf9f-df25037466d8" d="M1715.34,359.13v66.5l2.79,2.48,8.37.77v5.58h-34.87v-5.58l8.21-.77,2.64-2.48V369.52h-10.85v-4.81l17.82-5.58Zm3.72-25.42a9,9,0,1,1-9-9A9,9,0,0,1,1719.06,333.71Z" transform="translate(-209.68 -63.5)"/><path class="059eb001-300b-4e38-bf9f-df25037466d8" d="M1782.92,379.28h-7.59l-1.24-11a24,24,0,0,0-11.47-3.26c-8.22,0-12.87,4.19-12.87,11.16,0,6.67,4.5,9.92,13.18,14.11,5.42,2.63,11.31,4.8,16.43,9,3.72,2.94,5.89,7.59,5.89,13.33,0,14.41-10.7,23.25-29,23.25a58.25,58.25,0,0,1-20.15-3.26V412.45h7.44l1.86,13.18a26.16,26.16,0,0,0,13.18,3.72c9,0,14.57-5.27,14.57-12.56,0-8.06-5.58-10.85-15.81-15.5-13.18-5.89-20-10.85-20-21.23,0-13.64,9.77-21.7,27.44-21.7a44.43,44.43,0,0,1,18.13,3.41Z" transform="translate(-209.68 -63.5)"/><path class="059eb001-300b-4e38-bf9f-df25037466d8" d="M1888.63,358.36c12.25,0,20,8.21,20,23.56v43.71l2.63,2.48,8.22.77v5.58h-33.79v-5.58l7.28-.77,2.79-2.48V384.55c0-10.85-4.34-16-14-16-5,0-10.85,1.86-17.51,5.11v51.93l2.79,2.48,7.28.77v5.58h-33v-5.58l7.44-.77,2.63-2.48V384.55c0-10.85-4.34-16-13.64-16-5.11,0-10.85,1.7-17.67,5.11v51.93l2.64,2.48,7.44.77v5.58h-34v-5.58l8.37-.77,2.64-2.48V369.52h-11v-4.81l18-5.58h5.89v8.53c10.23-6.05,18.29-9.3,24.8-9.3a18.24,18.24,0,0,1,17,10.38C1873.6,361.92,1882.43,358.36,1888.63,358.36Z" transform="translate(-209.68 -63.5)"/><path class="059eb001-300b-4e38-bf9f-df25037466d8" d="M2068.43,385.17l-11,1.4c-6.66,12.55-13.33,22-19.53,28.05,6.36,9.46,13.49,13.49,23.56,13.49h1.71v6.2l-11,.62c-1.86.15-3.1.15-3.87.15-7.75,0-12.25-3.72-19.22-12.09-10.54,8.84-22.32,13.18-34.1,13.18-15.81,0-26.51-10.7-26.51-25.27,0-13.33,8.68-24,26.66-33.17-5.58-7.9-8.52-14.41-8.52-20.61,0-15.5,13.64-28.68,33.32-28.68,13.95,0,22.63,8.37,22.63,20.31,0,13-10.85,23.56-31.62,29.91l23.1,30.69c4.18-3.72,8.52-10.54,13.48-20.15l-1.86-2.48-7.59-1.55v-6.51h30.38Zm-69.75-2.63c-11,6.82-16.28,13.79-16.28,23.71,0,11.94,8.53,20.77,20.31,20.77,7.59,0,15.34-2.94,22.63-8.83Zm31.15-32.71c0-8.83-5.27-14.41-13.17-14.41-10.54,0-18.45,7.75-18.45,17.82,0,6.51,3.1,13.33,9.15,21.24C2022.39,369.05,2029.83,361.15,2029.83,349.83Z" transform="translate(-209.68 -63.5)"/><path class="059eb001-300b-4e38-bf9f-df25037466d8" d="M2159.41,330.46v6.2l-9.61.93-2.79,2.17v56.11c0,21.08,7.91,30.84,27.75,30.84,19.53,0,27.59-9.76,27.59-30.84v-55l-2.95-2.79-9.3-1.39v-6.2h32.71v6.2l-9.3,1.39-2.79,2.79v56.42c0,11.32-.78,20-6.82,27.28-5.89,7.13-17.36,11.78-32.09,11.78s-26.19-4.65-32.08-11.78c-6.05-7.28-6.82-15.81-6.82-27.28v-57.5l-2.64-2.17-8.83-.93v-6.2Z" transform="translate(-209.68 -63.5)"/><path class="059eb001-300b-4e38-bf9f-df25037466d8" d="M2229.78,428.88l8.37-.77,2.64-2.48V369.52h-11v-4.81l18-5.58h5.89v8.53c10.39-5.74,18.29-9.3,25-9.3,13.48,0,20.92,8.06,20.92,23.56v43.71l2.64,2.48,8.37.77v5.58h-33.95v-5.58l7.44-.77,2.64-2.48V384.55c0-11.31-4.19-16-15.66-16-5,0-10.69,1.7-17.36,5.11v51.93l2.64,2.48,7.44.77v5.58h-33.95Z" transform="translate(-209.68 -63.5)"/><path class="059eb001-300b-4e38-bf9f-df25037466d8" d="M2353.78,435.55c-21.08,0-34.87-15.5-34.87-38.44,0-23.1,15-38.75,36.73-38.75,14.88,0,23.25,6.2,23.25,15.19,0,5-3.41,8.21-8.68,8.21a12.48,12.48,0,0,1-7-2.32V366.73a14.29,14.29,0,0,0-7.44-2.17c-13.33,0-22.79,11.93-22.79,31.46,0,19.07,10.23,30.38,26.35,30.38,6.82,0,13.18-2.17,19.68-6.51V428C2370.52,432.91,2362.15,435.55,2353.78,435.55Z" transform="translate(-209.68 -63.5)"/><path class="059eb001-300b-4e38-bf9f-df25037466d8" d="M2460.11,397.11c0,22.94-15.34,38.75-36.11,38.75s-36-15.81-36-38.75c0-23.1,15-38.75,36-38.75S2460.11,374.17,2460.11,397.11Zm-57.5,0c0,20,9,32.08,21.39,32.08,12.55,0,21.54-11.93,21.54-32.08S2436.55,365,2424,365,2402.61,377,2402.61,397.11Z" transform="translate(-209.68 -63.5)"/><path class="059eb001-300b-4e38-bf9f-df25037466d8" d="M2470.49,428.88l8.37-.77,2.64-2.48V369.52h-11v-4.81l18-5.58h5.89v8.53c10.39-5.74,18.29-9.3,25-9.3,13.48,0,20.92,8.06,20.92,23.56v43.71l2.64,2.48,8.37.77v5.58H2517.3v-5.58l7.44-.77,2.64-2.48V384.55c0-11.31-4.19-16-15.66-16-5,0-10.69,1.7-17.36,5.11v51.93l2.64,2.48,7.44.77v5.58h-34Z" transform="translate(-209.68 -63.5)"/><path class="059eb001-300b-4e38-bf9f-df25037466d8" d="M2586.74,359.91v5.73l-8.21.62-1.86,2.48,18.13,50.69,19.84-50.69-1.24-2.48-8.37-.62v-5.73h27.44v5.73l-9.15,1.24-27.12,67.58h-8.68l-25-67.89-9.45-.93v-5.73Z" transform="translate(-209.68 -63.5)"/><path class="059eb001-300b-4e38-bf9f-df25037466d8" d="M2699.89,426.56a52.65,52.65,0,0,1-29.14,9.3c-20.46,0-34.56-15.35-34.56-38.13,0-23.41,15-39.37,35.8-39.37,16.89,0,27.9,11.47,27.9,30.53,0,1.55,0,3.1-.16,4.81h-50.22v1.7c0,19.84,10.39,31.62,26,31.62,7.75,0,15.5-3.1,24.34-9Zm-13.8-41.85c0-12.56-5.73-19.38-16.12-19.38-9.92,0-18.75,8.68-19.68,21.86h35.8Z" transform="translate(-209.68 -63.5)"/><path class="059eb001-300b-4e38-bf9f-df25037466d8" d="M2711.21,428.88l8.36-.77,2.64-2.48V369.52h-11v-4.81l18-5.58h5.89v8.53c10.39-5.74,18.29-9.3,25-9.3,13.48,0,20.92,8.06,20.92,23.56v43.71l2.64,2.48,8.37.77v5.58H2758v-5.58l7.44-.77,2.64-2.48V384.55c0-11.31-4.19-16-15.66-16-5,0-10.69,1.7-17.36,5.11v51.93l2.64,2.48,7.44.77v5.58h-33.94Z" transform="translate(-209.68 -63.5)"/><path class="059eb001-300b-4e38-bf9f-df25037466d8" d="M2798.47,369.21V364.4l10.23-4.49,6.66-14.42h5.74v16.43h23.56v7.29H2821.1v40.92c0,11.78,2,16.89,12.86,16.89a50.06,50.06,0,0,0,10.7-1.24v5.74a68,68,0,0,1-20.31,3.41c-12.86,0-16.12-4.65-16.12-15.66V369.21Z" transform="translate(-209.68 -63.5)"/><path class="059eb001-300b-4e38-bf9f-df25037466d8" d="M2875.5,359.13v66.5l2.79,2.48,8.37.77v5.58h-34.87v-5.58l8.21-.77,2.64-2.48V369.52h-10.85v-4.81l17.82-5.58Zm3.72-25.42a9,9,0,1,1-9-9A9,9,0,0,1,2879.22,333.71Z" transform="translate(-209.68 -63.5)"/><path class="059eb001-300b-4e38-bf9f-df25037466d8" d="M2967.57,397.11c0,22.94-15.34,38.75-36.11,38.75s-36-15.81-36-38.75c0-23.1,15-38.75,36-38.75S2967.57,374.17,2967.57,397.11Zm-57.5,0c0,20,9,32.08,21.39,32.08,12.55,0,21.54-11.93,21.54-32.08S2944,365,2931.46,365,2910.07,377,2910.07,397.11Z" transform="translate(-209.68 -63.5)"/><path class="059eb001-300b-4e38-bf9f-df25037466d8" d="M2978,428.88l8.37-.77,2.63-2.48V369.52h-11v-4.81l18-5.58h5.89v8.53c10.38-5.74,18.29-9.3,25-9.3,13.49,0,20.93,8.06,20.93,23.56v43.71l2.63,2.48,8.37.77v5.58h-33.94v-5.58l7.44-.77,2.63-2.48V384.55c0-11.31-4.18-16-15.65-16-5,0-10.7,1.7-17.36,5.11v51.93l2.63,2.48,7.44.77v5.58H2978Z" transform="translate(-209.68 -63.5)"/><path class="059eb001-300b-4e38-bf9f-df25037466d8" d="M3087.7,435.55c-12.25,0-19.84-8.22-19.84-19.84,0-16.12,14.26-20.77,45.26-28.21v-5c0-12.25-3.1-17.36-14.26-17.36a30.23,30.23,0,0,0-11.78,2.48v13h-10.7c-3.56,0-4.8-1.09-4.8-4.81,0-9.45,11.78-17.51,31.31-17.51,16.27,0,23.09,6.66,23.09,22.32v44.95l2.79,2.48,8.22.77v5.58h-21.86l-2-9C3103.35,432.14,3095.14,435.55,3087.7,435.55Zm25.42-42.63c-21.86,6.05-31.62,10.23-31.62,21.55,0,7.59,4.65,12.71,12.4,12.71,5.11,0,11.47-2.48,19.22-7Z" transform="translate(-209.68 -63.5)"/><path class="059eb001-300b-4e38-bf9f-df25037466d8" d="M3144.27,428.88l9.14-.77,2.64-2.48V330.77h-11.94V326l18.91-5.58h5.89V425.63l2.79,2.48,8.84.77v5.58h-36.27Z" transform="translate(-209.68 -63.5)"/><path class="059eb001-300b-4e38-bf9f-df25037466d8" d="M3236.49,338.83l-9.76-2.17v-6.2h34.72v6.2l-9.77,1.24-1.24,2.17,20,71.61,24.95-81.22h10.85l25.42,82.92,18.76-72.69-1.71-2.17-10.38-1.86v-6.2h32.08v6.2L3360,338.83l-24.65,95.63h-10.54l-26.19-84.78-25.73,84.78h-10.39Z" transform="translate(-209.68 -63.5)"/><path class="059eb001-300b-4e38-bf9f-df25037466d8" d="M3396.92,435.55c-12.25,0-19.84-8.22-19.84-19.84,0-16.12,14.26-20.77,45.26-28.21v-5c0-12.25-3.1-17.36-14.26-17.36a30.23,30.23,0,0,0-11.78,2.48v13h-10.7c-3.56,0-4.8-1.09-4.8-4.81,0-9.45,11.78-17.51,31.31-17.51,16.27,0,23.09,6.66,23.09,22.32v44.95l2.79,2.48,8.22.77v5.58h-21.86l-2-9C3412.57,432.14,3404.36,435.55,3396.92,435.55Zm25.42-42.63c-21.86,6.05-31.62,10.23-31.62,21.55,0,7.59,4.65,12.71,12.4,12.71,5.11,0,11.47-2.48,19.22-7Z" transform="translate(-209.68 -63.5)"/><path class="059eb001-300b-4e38-bf9f-df25037466d8" d="M3453.8,428.88l8.22-.77,2.79-2.48V369.52h-11v-4.81l18-5.58h5.89V373.7a184,184,0,0,1,16.59-15,16.32,16.32,0,0,1,3.87-.31,23,23,0,0,1,9.3,2V373.7h-5a9.69,9.69,0,0,0-7.9-3.72c-5.12,0-10.54,3.88-16.9,11.32v44.33l2.64,2.48,10.85.77v5.58H3453.8Z" transform="translate(-209.68 -63.5)"/><path class="059eb001-300b-4e38-bf9f-df25037466d8" d="M3512.85,428.88l8.22-.77,2.79-2.48V369.21h-9.92v-5l9.92-2.33v-1.7c0-25.73,13.17-41.08,31.46-41.08,7.13,0,12.09,3.88,12.09,8.84,0,3.72-2.32,6.66-6.35,7.75l-14.11-9.3c-6.66,3.1-10.07,11.16-10.07,24.18v11.31h21.54v7.29h-21.7v56.42l2.64,2.48,9.61.77v5.58h-36.12Z" transform="translate(-209.68 -63.5)"/><path class="059eb001-300b-4e38-bf9f-df25037466d8" d="M3584.46,435.55c-12.24,0-19.84-8.22-19.84-19.84,0-16.12,14.26-20.77,45.26-28.21v-5c0-12.25-3.1-17.36-14.26-17.36a30.3,30.3,0,0,0-11.78,2.48v13h-10.69c-3.57,0-4.81-1.09-4.81-4.81,0-9.45,11.78-17.51,31.31-17.51,16.28,0,23.1,6.66,23.1,22.32v44.95l2.79,2.48,8.21.77v5.58H3611.9l-2-9C3600.12,432.14,3591.9,435.55,3584.46,435.55Zm25.42-42.63c-21.85,6.05-31.62,10.23-31.62,21.55,0,7.59,4.65,12.71,12.4,12.71,5.12,0,11.47-2.48,19.22-7Z" transform="translate(-209.68 -63.5)"/><path class="059eb001-300b-4e38-bf9f-df25037466d8" d="M3641.35,428.88l8.21-.77,2.79-2.48V369.52h-11v-4.81l18-5.58h5.89V373.7a182.53,182.53,0,0,1,16.58-15,16.4,16.4,0,0,1,3.88-.31,23,23,0,0,1,9.3,2V373.7h-5a9.71,9.71,0,0,0-7.91-3.72c-5.11,0-10.54,3.88-16.89,11.32v44.33l2.63,2.48,10.85.77v5.58h-37.35Z" transform="translate(-209.68 -63.5)"/><path class="059eb001-300b-4e38-bf9f-df25037466d8" d="M3765.34,426.56a52.62,52.62,0,0,1-29.13,9.3c-20.46,0-34.57-15.35-34.57-38.13,0-23.41,15-39.37,35.81-39.37,16.89,0,27.89,11.47,27.89,30.53,0,1.55,0,3.1-.15,4.81H3715v1.7c0,19.84,10.39,31.62,26,31.62,7.75,0,15.5-3.1,24.33-9Zm-13.79-41.85c0-12.56-5.74-19.38-16.12-19.38-9.92,0-18.76,8.68-19.68,21.86h35.8Z" transform="translate(-209.68 -63.5)"/></g></svg>